<mxfile host="Electron" agent="Mozilla/5.0 (Windows NT 10.0; Win64; x64) AppleWebKit/537.36 (KHTML, like Gecko) draw.io/24.7.17 Chrome/128.0.6613.36 Electron/32.0.1 Safari/537.36" version="24.7.17">
  <diagram name="PÃ¡gina-1" id="ipjOQ2an3R_P5Ma18COH">
    <mxGraphModel dx="1035" dy="1795" grid="1" gridSize="10" guides="1" tooltips="1" connect="1" arrows="1" fold="1" page="1" pageScale="1" pageWidth="827" pageHeight="1169" math="0" shadow="0">
      <root>
        <mxCell id="0" />
        <mxCell id="1" parent="0" />
        <mxCell id="WJ8f-q0Ck-yod8A7DQjw-32" value="" style="rounded=0;whiteSpace=wrap;html=1;" vertex="1" parent="1">
          <mxGeometry x="40" y="-10" width="755" height="535" as="geometry" />
        </mxCell>
        <mxCell id="WJ8f-q0Ck-yod8A7DQjw-39" value="" style="rounded=0;whiteSpace=wrap;html=1;fillColor=#f5f5f5;fontColor=#333333;strokeColor=#666666;" vertex="1" parent="1">
          <mxGeometry x="340" y="75" width="420" height="400" as="geometry" />
        </mxCell>
        <mxCell id="WJ8f-q0Ck-yod8A7DQjw-21" value="" style="rounded=0;whiteSpace=wrap;html=1;" vertex="1" parent="1">
          <mxGeometry x="80" y="170" width="410" height="210" as="geometry" />
        </mxCell>
        <mxCell id="WJ8f-q0Ck-yod8A7DQjw-20" value="" style="rounded=0;whiteSpace=wrap;html=1;" vertex="1" parent="1">
          <mxGeometry x="576" y="10" width="168" height="490" as="geometry" />
        </mxCell>
        <mxCell id="WJ8f-q0Ck-yod8A7DQjw-1" value="&lt;font style=&quot;font-size: 14px;&quot;&gt;ML Server A&lt;/font&gt;" style="rounded=0;whiteSpace=wrap;html=1;fillColor=#a20025;strokeColor=#6F0000;fontColor=#ffffff;" vertex="1" parent="1">
          <mxGeometry x="600" y="110" width="120" height="60" as="geometry" />
        </mxCell>
        <mxCell id="WJ8f-q0Ck-yod8A7DQjw-2" value="&lt;font style=&quot;font-size: 14px;&quot;&gt;ML Server B&lt;/font&gt;" style="rounded=0;whiteSpace=wrap;html=1;fillColor=#a20025;strokeColor=#6F0000;fontColor=#ffffff;" vertex="1" parent="1">
          <mxGeometry x="600" y="250" width="120" height="60" as="geometry" />
        </mxCell>
        <mxCell id="WJ8f-q0Ck-yod8A7DQjw-3" value="ML Server C" style="rounded=0;whiteSpace=wrap;html=1;fillColor=#a20025;strokeColor=#6F0000;fontColor=#ffffff;fontSize=14;" vertex="1" parent="1">
          <mxGeometry x="600" y="390" width="120" height="60" as="geometry" />
        </mxCell>
        <mxCell id="WJ8f-q0Ck-yod8A7DQjw-4" value="Proxy" style="rounded=0;whiteSpace=wrap;html=1;fillColor=#0050ef;strokeColor=#001DBC;fontColor=#ffffff;fontSize=14;" vertex="1" parent="1">
          <mxGeometry x="350" y="250" width="120" height="60" as="geometry" />
        </mxCell>
        <mxCell id="WJ8f-q0Ck-yod8A7DQjw-5" value="Client" style="rounded=0;whiteSpace=wrap;html=1;fillColor=#60a917;strokeColor=#2D7600;fontColor=#ffffff;fontSize=14;" vertex="1" parent="1">
          <mxGeometry x="100" y="250" width="120" height="60" as="geometry" />
        </mxCell>
        <mxCell id="WJ8f-q0Ck-yod8A7DQjw-6" value="" style="endArrow=classic;startArrow=classic;html=1;rounded=0;exitX=1;exitY=0;exitDx=0;exitDy=0;entryX=0;entryY=0.5;entryDx=0;entryDy=0;" edge="1" parent="1" source="WJ8f-q0Ck-yod8A7DQjw-4" target="WJ8f-q0Ck-yod8A7DQjw-1">
          <mxGeometry width="50" height="50" relative="1" as="geometry">
            <mxPoint x="480" y="250" as="sourcePoint" />
            <mxPoint x="530" y="200" as="targetPoint" />
          </mxGeometry>
        </mxCell>
        <mxCell id="WJ8f-q0Ck-yod8A7DQjw-12" value="&lt;font style=&quot;font-size: 13px;&quot;&gt;RPC&lt;/font&gt;" style="edgeLabel;html=1;align=center;verticalAlign=middle;resizable=0;points=[];" vertex="1" connectable="0" parent="WJ8f-q0Ck-yod8A7DQjw-6">
          <mxGeometry x="0.0846" y="1" relative="1" as="geometry">
            <mxPoint as="offset" />
          </mxGeometry>
        </mxCell>
        <mxCell id="WJ8f-q0Ck-yod8A7DQjw-7" value="" style="endArrow=classic;startArrow=classic;html=1;rounded=0;exitX=1;exitY=0.5;exitDx=0;exitDy=0;entryX=0;entryY=0.5;entryDx=0;entryDy=0;" edge="1" parent="1" source="WJ8f-q0Ck-yod8A7DQjw-4" target="WJ8f-q0Ck-yod8A7DQjw-2">
          <mxGeometry width="50" height="50" relative="1" as="geometry">
            <mxPoint x="390" y="300" as="sourcePoint" />
            <mxPoint x="440" y="250" as="targetPoint" />
          </mxGeometry>
        </mxCell>
        <mxCell id="WJ8f-q0Ck-yod8A7DQjw-13" value="&lt;font style=&quot;font-size: 13px;&quot;&gt;RPC&lt;/font&gt;" style="edgeLabel;html=1;align=center;verticalAlign=middle;resizable=0;points=[];" vertex="1" connectable="0" parent="WJ8f-q0Ck-yod8A7DQjw-7">
          <mxGeometry x="0.0308" relative="1" as="geometry">
            <mxPoint as="offset" />
          </mxGeometry>
        </mxCell>
        <mxCell id="WJ8f-q0Ck-yod8A7DQjw-8" value="" style="endArrow=classic;startArrow=classic;html=1;rounded=0;exitX=0;exitY=0.5;exitDx=0;exitDy=0;entryX=1;entryY=1;entryDx=0;entryDy=0;" edge="1" parent="1" source="WJ8f-q0Ck-yod8A7DQjw-3" target="WJ8f-q0Ck-yod8A7DQjw-4">
          <mxGeometry width="50" height="50" relative="1" as="geometry">
            <mxPoint x="390" y="300" as="sourcePoint" />
            <mxPoint x="440" y="250" as="targetPoint" />
          </mxGeometry>
        </mxCell>
        <mxCell id="WJ8f-q0Ck-yod8A7DQjw-14" value="&lt;font style=&quot;font-size: 13px;&quot;&gt;RPC&lt;/font&gt;" style="edgeLabel;html=1;align=center;verticalAlign=middle;resizable=0;points=[];" vertex="1" connectable="0" parent="WJ8f-q0Ck-yod8A7DQjw-8">
          <mxGeometry x="-0.0648" y="2" relative="1" as="geometry">
            <mxPoint as="offset" />
          </mxGeometry>
        </mxCell>
        <mxCell id="WJ8f-q0Ck-yod8A7DQjw-9" value="" style="endArrow=classic;startArrow=classic;html=1;rounded=0;exitX=1;exitY=0.5;exitDx=0;exitDy=0;entryX=0;entryY=0.5;entryDx=0;entryDy=0;" edge="1" parent="1" source="WJ8f-q0Ck-yod8A7DQjw-5" target="WJ8f-q0Ck-yod8A7DQjw-4">
          <mxGeometry width="50" height="50" relative="1" as="geometry">
            <mxPoint x="390" y="300" as="sourcePoint" />
            <mxPoint x="440" y="250" as="targetPoint" />
          </mxGeometry>
        </mxCell>
        <mxCell id="WJ8f-q0Ck-yod8A7DQjw-11" value="&lt;font style=&quot;font-size: 13px;&quot;&gt;REST API&lt;/font&gt;" style="edgeLabel;html=1;align=center;verticalAlign=middle;resizable=0;points=[];" vertex="1" connectable="0" parent="WJ8f-q0Ck-yod8A7DQjw-9">
          <mxGeometry y="1" relative="1" as="geometry">
            <mxPoint as="offset" />
          </mxGeometry>
        </mxCell>
        <mxCell id="WJ8f-q0Ck-yod8A7DQjw-22" value="" style="shape=image;verticalLabelPosition=bottom;labelBackgroundColor=default;verticalAlign=top;aspect=fixed;imageAspect=0;image=data:image/jpeg,/9j/4AAQSkZJRgABAQEAAAAAAAD/4QBCRXhpZgAATU0AKgAAAAgAAYdpAAQAAAABAAAAGgAAAAAAAkAAAAMAAAABAL0AAEABAAEAAAABAAAAAAAAAAAAAP/bAEMACwkJBwkJBwkJCQkLCQkJCQkJCwkLCwwLCwsMDRAMEQ4NDgwSGRIlGh0lHRkfHCkpFiU3NTYaKjI+LSkwGTshE//bAEMBBwgICwkLFQsLFSwdGR0sLCwsLCwsLCwsLCwsLCwsLCwsLCwsLCwsLCwsLCwsLCwsLCwsLCwsLCwsLCwsLCwsLP/AABEIAQsB2gMBIgACEQEDEQH/xAAfAAABBQEBAQEBAQAAAAAAAAAAAQIDBAUGBwgJCgv/xAC1EAACAQMDAgQDBQUEBAAAAX0BAgMABBEFEiExQQYTUWEHInEUMoGRoQgjQrHBFVLR8CQzYnKCCQoWFxgZGiUmJygpKjQ1Njc4OTpDREVGR0hJSlNUVVZXWFlaY2RlZmdoaWpzdHV2d3h5eoOEhYaHiImKkpOUlZaXmJmaoqOkpaanqKmqsrO0tba3uLm6wsPExcbHyMnK0tPU1dbX2Nna4eLj5OXm5+jp6vHy8/T19vf4+fr/xAAfAQADAQEBAQEBAQEBAAAAAAAAAQIDBAUGBwgJCgv/xAC1EQACAQIEBAMEBwUEBAABAncAAQIDEQQFITEGEkFRB2FxEyIygQgUQpGhscEJIzNS8BVictEKFiQ04SXxFxgZGiYnKCkqNTY3ODk6Q0RFRkdISUpTVFVWV1hZWmNkZWZnaGlqc3R1dnd4eXqCg4SFhoeIiYqSk5SVlpeYmZqio6Slpqeoqaqys7S1tre4ubrCw8TFxsfIycrS09TV1tfY2dri4+Tl5ufo6ery8/T19vf4+fr/2gAMAwEAAhEDEQA/APXKKKKACiiigAooooAKKKKACiiigAooooAKKKKACiiigAooooAKKKKACiiigAooooAKKKKACiiigAooooAKKKKACiiigAooooAKKKKACiiigAooooAKKKKACiiigAooooAKKKKACiiigAooooAKKKKACiiigAooooAKKKKACiiigAooooAKKKKACiiigAooooAKKKKACiiigAooooAKKKKACiiigAooooAKKKKACiiigAooooAKKKKACiiigAooooAKKKKACiiigAooooAKKKKACiiigAooooAKKKKACiiigAooooAKKKKACiiigAooooAKKKKACiiigAooooAKKKKACiiigAooooAKKKKACiiigAooooAKKKKACiiigAooooAKKKKACiiigAooooAKKKKACiiigAooooAKKKKACiiigAooooAKKKgu7yxsIJLq9uIre3j+9JMwVc9gM9z2FAE9FcpP4n1C6yNH07bCel7q2+GNh/eitl/fEemdlZ0i6xd5N/rV84PWKxK2MGPT9z+8I+slbxoTl0OCtmFClo3d+R3E1xbW67p54YlHVpZFQfmxFZkvibwrCQr6xp+ScARzpIc4z0jJrlE0jRlYObKGST/npcg3En/fc5Y1cSKGIYiijjHpGioPyUVssI+rOCWcx+zD8TXPjHwgME6pHg9/Jucf+i6lXxX4SYqv9sWSlhkCR/L4/wC2gFY2T60hAYYYAg9QQCP1qvqnmR/bL/k/H/gHU2+paTd8Wt/ZTng4guIpDzz0RjVuuBl0zSrj/W6faOeuTBGGB9dygH9aIrO5s8Np2o6jZEcqgma5tvoYLrcv5EVEsJJbM3hnFJ6Ti1+J31Fclb+JdTssLrNok1sOt/paudg/vT2hy4HqVLfQV09vdWd3bx3dtPFNbSJ5iTRurRsvruHH1rllGUXaSPVpVoVlzU3cmorIk8S+FopGjfWdODqQGH2iMhSeACQcfrWnDNb3EaTW8sU0TjKSQuro30ZSRUmpJRRRQAUUUUAFFFFABRRRQAUUUUAFFFFABRRRQAUUUUAFFFFABRRRQAUUUUAFFFFABRRRQAUUUUAFFFFABRRRQAUUUUAFFFFABRRRQAUUUUAFFFFABRRRQBla1rMelRQJHEbnULtmjsbVWCmRlGWeRj91F6sf5k4PMv8A23dsJb/WLsOTnyNLc2drGOu0Ff3rfUv+ApZJDea34hu3JJtp49Jtwf8AlnDBGkrhf95mJP0HpXnvijxZrtrrFzY6fN9nhs2SM7URmmcqGLMXB454FdsIQpwU5q9zw69aviK7oUHZLc7e4vtY0hrc2GqX1zdXEmy30+/YXcVxg5bLviRFUcs2/j0PQuuPvjVdduFuLtWCwqFZre1ZzhYbGDklj0zgsf0EOi2t95MeoaoQ+q3cEQlIUKtvCBlYI1HA9X9Sfbja0K2trma916+aMW9jLPa6aZmCxQpD8k90S3G5jlQewX/arSfJTXPbXoctF1sVL6u56Ld/1/XUjt9N8TX4Egjt9MgblTfK1xeMD0JgjZUX6FyfarX/AAjOrjlfEDF+eH0+3MfsNqsG/wDHq1tP1/w9q0ksOm6nZ3UsQy8cEqs4A43BepHvWnXI69Ru9z2YYHDwVlBfM4e7h1vSVMmowRXFkv373ThJ+5H964tny4X1KswHfFPVldVdGVkdQyspBVlIyCCOMV2pGQQeQeDXDS2i6Vqt7psYxZzRDUtPXtCjuUmgX/ZVsMo7B8dq6aFdyfLI8rMMvhTh7WlpbdE1QWsepaxLLHphjhtIZGiuNSnTzEMinDR2kXAYjoWJwDxyRgR3wmmW0sYHZJtTu4rBZF+9FG+XmkX3CBse9aOreMPB/hE2mkSGXfBDEi21lEH+zxAAL5hJA5HPXPfvzWIrOHuxM8twUaydWpquiLsXhHRcBrx76+lHJe7u5gufaKApGB/wGiXwjoRy1r9ssZe0lndzjBHrHKzRn8VrS0rVtM1qyh1DTpxNbS5AOCGR16o6nkEdx/jV6uDmlvc+i9lC3Lyq3ocNPFqWk3MFtqLJNBcv5dlqESeWskuMiC5jHCuf4SODjseDl6jpZw09mjPF5v2i90sSvHaagQMFjGpC+YOo7HHI7j0DVbCHVNPvbGXpPEyo3eOUfNHIp9VIBH0rj9PuJLqys55BiV4gJh6TITG4/MGu6hP2q5Z9D5/HUfqk1Vo6J6NEFnqOg3Aht7S4sg8iZW1HlxyqO6NDwQRyCMVIIbjTJW1DRQIbhTvuLNPktb9By0bxj5Q5/hYAHPXIrjfF/h64/tHTdV0tdk93dw2820hQt0zfu5s+/f3HvXfLuAXcQWAXcR0LY5Ira3PeM0cTf1fkrUZb9P8AM6uwvbbUrK0vrYkwXUSypuGGXPVWHqDkH3FWa5zwjxZarGv+pi1vUkg5yNhZZGA+jFq6OvKkrNo+upy54qXcKKKKRYUUUUAFFFFABRRRQAUUUUAFFFFABRRRQAUUUUAFFFQT3VtbDM0gU9lHLH6KOaaTeiJlKMFzSdkT0ViTa2xJFvEAOzyHJ+u0f41Qk1DUJOGncD0TCf8AoNdEcNN76HmVM1oQ0jdnVUVxxlmbgySH6u3+NIHkX7sjj6M3+Na/VH3Ob+2V/J+P/AOyorlI76+i+5O+PRzvH5NWjb610W5j4/vx/wBVNZSw047anTSzSjN2lobVFMilimQPE6uh7qc/gafXNseommroKKKKBhRRRQAUVHLPBAN00ioO248n6DrWbNrUC8QxvIfV/kX/ABq405T+FHPVxNKj8crGtRXOyazfN9wRxj2Xcfzb/CoW1LUW/wCW7D/dVR/St1hZs4JZtQWybOoorlhqOoj/AJeHP1Cn+YqaPWL9D85jkHoy4/VaHhZhHN6D3TR0dFZkGsW0mFmUxMeM/eT8+v6VpKyOoZGDKRkFSCD9CKwlCUPiR6NKvTrK9N3FoooqDYKKKKAOI1WI6Rq93LN8unazLHPDOeI4b8IsTwyt0G8BWQnqcj64Gq6Ppd9ruhSPbg3SGS8unBwHtrYAIsi9DlioHsDXqU0FvcxSwXEUcsEqlJY5VDo6nsytxXAQWNjaa14iFksi29s1np8KPLJKItsX2iRI/MJIXLjjPau2hU57U2jwsfh/Yt4mDtfS3roaAySPXP61yfiuS/X4daIsBbyTqMkWpFOnyz3HD47bwPxxXWUzTZrG2nvdF1SOJ9K1qV5bQ3ChoBcy/wCttJN3A3H54/ckdQM64qLcU10OXKKsY1HB9TybwjZyi80rVLLUYU1KHXLC0h04Z+0Twyn97JwfuAbt3HQHp3+j6xNK8KeFtFnkutN0yCC4cMvm5kkdFbqqGVjgfStuvNPpwrlPEJQ63oagfvE07VHcjtG0luoz9SOPpXR3l5Z6fby3d5MkNvEMu7nj2AA5JPQAcmuAvdYtYZLzXtYk+yLdiO3sYJcmaOziyyJsXJ3sSXcdsgdq3oRvO/RHn5hUUaLgtXLRIveYkGqeGZ5APKXUWgZj/A9zbyQRn/vogfjXlnjvT7yy8Was+oJMIL27+1QygZ822cj/AFZPGVHy49q6ibxr4Svkms5nvYo5QFE5hwEYEMsi7WLAqQCOO1dzo+vaXqsNnZ6v9je92q1tLKsbWmoqOBcWjuCu4/xL1B7Y5q8RaUuaLuY5a5U4eyqKz6eZT+Hmn21nba5PpwvF0W+vYZdKF+Ns7xpCqSSlcDgtkKccha7egAAAAAAAAAdAB2FNd441Z5GVEUFmZyFVQO5J4rlPWFZkRWdyFRFLMx4AUDJJNee6Pn+z7eT5sXEl1dpu6hLi4kmX9CK0tX1ldaSXTNLdmsHJj1LUEyI5IujW1o38RbozDgDOCSflYoVQqqAqqAqqOAqgYAFd+FptXkz57NsRGVqUemrKmpWxvLG8t1OJGjLwMOqzxnzI2H0IFQWeo3GrxW0WkReffzxRGZirfZLB2HzNdSdMqc4UcnH4jT6Vf8IOqWeqWIAH2DVrxEAAB8q4Iu0Jx/vkfhWtecqavE5MvowxEuSp01/r8DX0rTodKsLWxiZnEKkySvjfNK7F5JWx3Ykn8au0UV5Z9YFFFFABRRRQAUUUUAFFFFABRRRQAUUUUAFFFFABQSACScAcknsKCQBk8AckntXPajqLXBaGEkQKcMRwZCP6VrTpuo7I5cVioYaHNLfoie91c5aK0xxkNKef++B/WsdmZyWZizE8ljkn8abRXqQpxgrI+SxGJqYiV5sKKWkrQ5gpaSloASiiigCa3uJ7ZxJE2D/Ep+6w9CK6WzvIryPcvyuvEiHqp9R7VytSW88ltKksZ5XqOzL3U1z1qKqK63PRwWNlh5WesTr6KjhmjnijljOVcZHqPUGnsyorMxAVQSxPQAV5duh9cpJrmWwMVUFmICgZJJwAPc1jXmsHLR2nToZWH/oINVL/AFB7piiErbqeB0L4/ib/AAqhXfRw6XvTPnMZmbk3Ci7Lv/kOZ3dizszMepYkn8zSUlFdh4jd9WFFLSUxBRRRQAVYtry4tWzG2VJ+ZG5Rh9Kr0UnFSVmXCcoS5ouzOrtLyG7TcnDD76H7yn/CrNcfDNLbyJLEcMp/Aj0PtXU2tzHdQrKnGeHXurDqDXmVqPs3dbH1WAxyxC5Z/EvxJ6KKK5j0wrgLFxKdXuMg/adZ1WUEZ5VZ2hXr7KK7+vPNIbdYo/d7nUGP1N3LXXhfjfoePm7tRS8/0ZfpksMM8UkM8aSRSDa6SAMrD3Bp9FekfL7EUEmvWACWGqF4FGEt9UiN0iAcBUmVlmwPdjVh9W8WyDaJ9HgyMF4ra5lcH1VZJQv55ptJWDoU272O+OYYmKspfkULpdjRXuoz3WpXokWOzWXZjz5OFS1t0AiUn1xnHfiuT8ZeGfF+oy2d8lvFcIkHlG1snZ3tjuLHO/G4nuQO1dhduLe40m+dWaCzuZGuNilmRJYmiEu0cnaTk8dD7VojWtKlwtpK99IeBHp0Ulw+fQ7BtH4kV5OPrVaU1Tpx938z6HKKNOvB4irK89t9jxC38JeLrpwkekXindtLTJ5SLjuWkwK9I07RL7QNHistUhtr+wy81y0IMhs2c5O6Nxyg67l5HJx3ro4NXu55NQQaLqe2wmW3uWQ20rpI0azAeUkm48MCcZp513QRFJIb6H92WWSE5FxvHBiMDDzN3bG2uFYrEU5JqJ61TCUK8HGT/wCB5mdHZqkafY9S1aCAgNGtpqM/lbSMgoHLDH0obTbWYqbyS8viuCo1G6muEBHfy3Oz/wAdpdNikhsoEeMxEtNIkJ5MMckjSJEf90ECrdfTRhFpS5bHwlTEVU3DnbS8wAAAVQAqgBQoAAA7ADiiiitTkCrHhx/L1rxBB2ns9MvB/vKZrdsfktV6dpBCeJo+QPP0O5XGPmZorqJhz9GNc2JV6Z6eVytiEu9zsqKKK8s+tCiiigAooooAKKKCMgjnkY44P50AZ9xqtrbytFteRl4YptwD6ZJqL+27b/njN/45/jU/9lacckxsSeSTI/P60f2Tpv8Azyb/AL+P/jXSnRtrc8uUcc22nFL+vIg/tu2/54zf+Of40f23bf8APGb/AMc/xqf+ydN/55N/38f/ABo/snTf+eTf9/H/AMad6HZk8mP/AJo/18iD+27b/njN/wCOf40f23bf88Zv/HP8am/snTf+eTf99v8A40f2Tp3/ADzb/vt/8aL0OzDkx/8ANH+vkQjWrckAQTkkgADYSSew5rVHIBxjI6HtVSLTrGGRZUjO9eVLMxAPrg1LdTrbQSzHqowo9WPAFZT5JNKmjqo+2pxcsRJfIzNXvSM2kR5IzMR6Hov+NYlOZmdmdjlmYsxPcnk02vUp01TjZHymJxEsRUc38vQKKKcqs7KiAlmICgdSTWhzb6DauQadfTjcse1eMNKdoOfQda1rHS4oAsk4V5uuDyiewHrWlXDUxVtIHvYbKeZc1Z28jCGhzY5uIw3oFYj8zUEuk38QJVVkUf8APM/N/wB8nmukorFYmotzullWHask18zjCCCQQQQcEEYIPuKK6W/sI7tCyALOo+Vum7/ZasePStRc8xhBnGZGA/EAZNdkK8ZK70PDr5fWpT5Yq67oo0VuRaGgwZp2PqsYAH5nn9KvRafYQ8rCpPq+XP8A49UyxUFtqa08qrz+KyM/RJZMzQkMY8eYrYO1W6EZ96j1a98xjbRH92h/ekfxMP4foP8APStK/uBaWzFMB3/dxAcYJHUD2rmOep5Pcn1qKUVUk6jRtjKksNSWFUrvr6dhKKKK7TxBaSpIopZpEijXc7nAH9T7V0VnptvbAMwEk2OWYZCn/ZBrGrWjT33O3C4OpiX7ui7mJDp1/MMrEVXrmQ7Afpnn9KtjRLnHM0QPoAx/Wt6iuJ4qb2PdhlNCK967Obl0i+jBKhJAOf3Z+b8FNUGVlJVgVZTghhgj6g12dVL2xhu0PAWYD5JAOc+je1XTxTvaZz4jKY25qL17HL0lPdHjd43GHQlWHuKZXfufPNNOzCtDSrkwXKxk/u58IR2Dfwn+lZ9LyMEdRyPqKmcVOLizSjVdKanHodnRUVvKJoIJf76Kx+uOalrxmraH3UZKSTXUK890nb9jKr0S81KP/vm7lFehVwFllX1qPIPla5q6DAwADcNIB+tdWF+N+h5Gbr9yn5/oy5RSUV6R8uFFLSUALV3wi8ax+ILX5RNDrNxNIo4JjuUSWN/xGR+B9KpVVnsYZ5TMJbqCZovIlksriS3eaHOfKlMZGR6enY81hWpupGyO/AYqOGqOUlo0bPhh7eS68amORXf/AISO5Em1g2MQQqOn0P5e1YlukX27xI2EZl12+2uVG5crGSoY88EmmjTLWIo1nJc2DLELdm06ZoDJCDkJJjIPfB689easW9vb2sSwwJtjUs3JZmZmO5ndmJYsTySTWVGg6crs68bmEMRSUIpp3JqSilrsPFCiiigAptgyJ4l0PI+eWw1eMH0Cm3enVHaD/ipPDh9LfWB+ccNYYj+Gzvy7/eYfP8mdvRRRXkn2IUUUUAFZOo6jNDIIbYfOvMjFCwGeij+ta1FXCSi7tXMa9OdSHLCXL5nN/wBqap/eH/fkf4Uf2pqv97/yCP8ACukorf20P5Eef9Rrf8/n/XzOb/tTVfX/AMgj/Cj+09W9f/IP/wBaukoo9tH+RB9Rrf8AP5/18znP7T1b1/8AIP8A9aj+09W9f/IP/wBauh3x/wB9f++hRvj/AL6/99Cj20f5EL6lV/5/v+vmc9/aWr+//fn/AOtS/wBpawemcnp+5/8ArV0G+P8Avr/30KUMhOAyk+gIo9tH+RD+pVf+fz/r5jY/M8uPzP8AWbF34GPmxzWNrcxLwW46KPNb6ngD+dblcrfv5l5dNnIEmwfRRijDR5p37BmlT2dDlXXQq0UUV6Z8qFbmj2gCm6cfM2Viz2UcFvxrEAJIA6kgD6niuwijWKOKNRgIiqAPYVyYqdo8q6nsZTRU6jm/s/mPooqnqVz9mtnKnEkn7uP2J6n8K8+MXJ2R9JUqKnBzlshz6jp6MyNcJuU4OAx5+oGKb/aemf8APwv/AHy/+FcvS13/AFSPc+cecVukV+P+Z0/9p6Z/z8L/AN8v/hR/aemf8/C/98v/AIVzFJT+qQ7sP7Yrfyr8f8zqP7T0z/n4X/vl/wDCj+09M/5+F/75f/CuXoo+qQ7sP7Yrdl+P+Zf1O6S6mTym3RRrhTggFjyTzVClpK6YRUFyo8urVlVm5y3YUUtS20XnXEEXZ3UH6Dk027K7IjFyaiupu6VaCGETMP3swDf7qdh/U1o0AYwB0HAorxZyc3zM+5o0o0YKEegUUUVJqFFFFAGHrcIV4Lgfxgxv9RyDWPXR6yAbMnuJYyPxOK5yvUw0r0z5HM4KGIduuoUUUV0nmnTaS5ayhH9xnT8jmr1ZujZ+xn/rtJj8hWlXjVdJs+2wbvQg32QVwigpqniqLJ+XVvMGRgDzrWCTiu7riLnA8ReJkBJyukzEHoN1uycf981rhn+8ObNFfDv1Q+lopK9Q+SCilpKAClpKWgBKKKWgBKKWkoAKKWkoAKSz/wCRh8Pf9cdVH/kKOlptqceIfDY/vLqo/wDJcGsK/wDDZ3Zf/vMP66HbUUUV5J9kFFFFABRRRQAUUUUAFVb6O6mgaK32gucOWYrhO4GPWrVFOLs7kVIKcXF9TnP7H1D0i/77/wDrUn9j6h/di/77/wDrV0lFdP1qZ5n9k4fz+85v+yNQ/ux/99irNhpt5BdRSyqgRA+cMCeVI4ArbopSxM5KzLp5ZRpyU1e6CuOlOZZj6ySH82NdjXIXC7J7hf7ssg/8eNaYTdnLnPww+ZFRRRXoHzhLb48+2z086LP03CuvrjASpDDqpBH1HNdfDIs0UUqnIdAw/HrXBi1sz6HJpK049dCSub1W48+6ZAfkg/djB4LdWP8AT8K6SsB9Fuy7lZIipYkElgSCc8jFZYdxjK8mdWZwq1KahTV77mVRWp/Yt7/fh/Nv8KP7Fvf78P5t/hXf7an3PA+o4j+RmZSVfn0y4tomlkkh2rgYBbJJ6AcVQq4yUldHPUpTpPlmrMKKKKozFpKKKACr2l4+3W+fSTH12mqNTWsvkXEEp6I4J+h4NRNXi0bUJKFWMn0aOuooBBAIOQRkH1BorxT7oKKKKACiikJVQWYgKASSegAoAydbkxHbxA8s5cj2UYH86wqs3tz9quJJB9wfJH/uCq1evRhyQSZ8XjayrVpTWwUUUoBYqoGSxCj6nitjjOm0pNllB/t73/NjVxmVVZmIVVBZmYgAAckkmmwxrFFFEOiIq/kKxfFkVzLod95KGSOIw3F7ArbHubKFxLPAjerKCPfp3rxJyu3I+7ow5KcYdkiJ/ErXBYaNps9/GCV+1ySJaWLEcfu5ZAXYe6oR71gi5vrjXdYN7bQW85sdLYpbzNOpUGcAl2RefwrRi1O2g0+2vNQeztFlQNDFBKJV8tuYo4toyzYxwq/Ssi3ne61vXZntbi222mkxxpdII5mjKzOHZASRnsDz7CsMDWqVK+q01IzanCGElrrp+aNKilpK+iPhxaKKSgApaKKAEooooAKKKKAFpKWkoAKo3L3cOqeGZrRrcXP2m9hi+1rI0J8y0kJDCIhs8cVerP1KSWCfw/cRW8lw0WqoDFDt811kgmQiMOQCfbPNc+Jv7GXLvY7svaWKhfudAviG+siP7bsEitsgNf6fI09rFk43XEbqsqL74YDuRXRqysqsrBlYBlZSCCDyCCK4a/1+xFhPPZXVi88X+tsb/fHPMMFWtvJP70O3QfIfpzXT6BZXOn6NpdncsGmhgw4GcRhmLiJd3OEBCj/drwcPUnNPnR9zWhGL9006KKK6TAKKKKACiiigAooooAKKKKACiiigArmdUjMd5Me0m2RfxGDXTVlazb74UuFHzQnD/wC43+FdGHlyz9TzcyoupQbW61MCiiivVPkQrV0u/WE/Z5mxGxzGx6Ix7H2NZVFROCmuVm9CvKhNTgdpweR+FFcvbaheWwCq4aMfwScj6A9RV5dcP8Vt/wB8v/iK86WGmttT6SnmlCS97Rm1TJZYoUaSVgqjqT/IVivrc5BEcKKexZi2PwGKzZri4uG3TSMx7A8KPoBxVQwsm/e0IrZtSiv3er/Anvr17yQEZWJMiNT/AOhH3qnS0lehGKirI+bqVJVZOc3qwoorR0uzNxKJXH7mEg89Hcchf6mlOSguZjo0pVpqEd2UZI5InKSKVYBTg+jDIplbWtW5/d3Sj0jl/wDZT/SsalTnzxUjTFUHQquAlFFLWhzG1peoLtS1nbBHELnoR/dJ/lWzXF1et9TvLcBSwkQdFk5I+jda4quGu+aB7uDzNQiqdbp1OmorHXXEx89u2f8AZcEfrTJNcc58qADjgyNn9B/jXN9Xqdj03mOGSvzfgzZd0jVndgqrySxAArA1HUjc5hhyIM/MTwZMe3pVOe6ubk5mkLAdFHCj/gI4qGuulh1B3lueNjMylWXJT0X4sSilpK6zyArS0i2Mtx5zD5IOfq56D+tUIo5JpEijGXc4Uf1NdVa26WsKRLzjlj/eY9TXLiKnLHlW7PVy3DOrU53tH8yeggEEEZB4INFFeYfVmfbaJoFnMbm10yyhn5xJFBGrrkknaccde1cxOwk1/wAUOCpCS6dbcdQY7VZCD/31Xb1wcTeZqHieXcDu1qeMYGMeRDDDg/ka6cMv3h5eau2HfqizSUUteofJhRRSUAFLSUUAFFLSUAFFFLQAUlFFABVS8KrNoLkE7Ne0jGOxeby8/rVyqOps8cNpIn3o9U0lxn2vIqzqfA/Q6cK7V4eq/M7t7SykmjuJLa3e4j/1czxI0qf7rkbh+dTUUV4x9uFFFFABRRRQAUUUUAFFFFABRRRQAUUUUAFIyqysrDKsCCD3B4paKAOWvbR7SYryYmJMTeo9D7iqldfPBDcxtFKuVPT1U+oNc3d2M9ox3AtET8sgHB9m9DXp0aymuV7nymOwLotzgvd/IqUUUV1HlC0lFFABRRRQAUUVes9OnuiGYGOHu5HLf7gNTKSirs0p0p1ZcsFdkVpaS3cgROEGDI/ZR/j6V1EUUcEaRRrhEGAP6mkhhit41jiXaq/mT6k+tSV5das6j8j63BYOOGjrrJ7jZI0lR43GUdSrD2NcrdW0lpM0T5K9Y27Mvr/jXWVDc20N1GY5B7ow+8p9QaKNX2b12FjsGsTG6+Jbf5HI0VZurOe0fbIMoT8kg+63/wBeq1epGSkro+SnCVOXLJWYUUUVRAtJRRQAUUUUALSqruyoilmY4VVGSTUtva3F022JCR/E54Rfqa6GzsIbQZHzykfNIR+ijsKwq1o0/U78JgamId9o9/8AIbp9gtom98NO4+Y9Qo/ur/Wr1FFeXKTk7s+tpUo0oqEFogoooqTQK4GyLl9ZdwAX1zWGGO6i5ZAf0rvq890ss1vcs/3jqerFvr9slrrwvxv0PHzf+AvX9GXqKWkr0j5cKKWkoAWkpaSgApaSigAooooAKKKKACqWqY+zRZ/5/wDTB/5ORVdqnqCiQaZCQxE2s6PEdvXBu0Yn9KzqfA/Q6MKr1oeq/M9Aooorxj7gKKKKACiiigAooooAKKKKACiiigAooooAKKKKACkZVdSrAMpGCGGQR7g0tFAbmTc6NE+Wtn8s8/I2ShPseorMl0+/iPzQMw9Y/nH6V1NFdMMTOOj1PLrZZQqO60fkcYVZThlYEdiCP50ldmVVvvAH6gH+dII4h0RB9FFbfW/I43k2uk/w/wCCcikM8n3IpG/3UYirkWk38uCyrEp7yHn/AL5FdJRUSxUnsjanlFNfHJv8DPttJtIMNJ++kHOXGFH0WtDpRRXLKcpO8merSowpLlpqwUUUVJqFFFFADXRJFKOqsp6hhkH86yrjRY2y1s+w/wBx8lfwPWteirhUlD4Wc9bD066tUVzlZbC/iPzQMR6x/OP/AB2qxBXhgQR2II/nXZ0jIjfeVW/3gD/OuqOLfVHlTyeL+CVvU4zIp6xyucJG7H/ZUn+VdaIbcHIijB9Qi/4VIABwOntVPF9kRHJv5p/h/wAE5iLTNQl58rYPWU7f06/pWlb6NAmGncyn+6PlT/GtWisJYicvI7qOWUKerV35jUREUKiqqjoFAA/IU6iiuc9LbYKKKKACiiigArgbLIbWIztzFrerphewNyzjP5131cM6eRrXie2P8V3b36f7l1boCR/wJWrqwrtM8rNo3w9+zRNSUUV6Z8oFLSUUALRRRQAlFFLQAUUUUAFJS0lAC1XKedqvhe3HO7UzdMP9m1t5Zc/ntqen6LF9p8RSy4zHpWmbc9hcX0gP5hU/8erDEStTZ35fDnxEfLU7GiiivJPsQooooAKKKKACiiigAooooAKKKKACiiigAooooAKKKKACiiigAooooAKKKKACiiigAooooAKKKKACiiigAooooAKKKKACiiigAooooAKKKKACiiigArkvEcP2bVtI1HGIr2J9IuD2EoJuLcn6nev/AAIV1tUtV06HVdPu7GVigmQeXIv3oZkIeOVfdSAR9KuEuSSkY16SrU3TfU5mkqtaTzyCe3u0Eeo2TiC/iHQSAZEqZ/gcfMp9/arNeympK6PiJwlTk4y3QtFFJTIClpKWgAooooASiiloASlopKAEd44kklkYLHGjSSMeioo3EmtbwpayRaa99OhS51ed9RkVvvRxOAkEZ+iBfxJrCS1Ot366UmTZW7Rz61IPu7Ad8dmCP4pOr+ij/arvAAAAAAAMADoBXnYqpd8q6H0uU4dwi6suu3oFFFFcZ7YUUUUAFFFFABRRRQAUUUUAFFFFABRRRQAUUUUAFFFFABRRRQAUUUUAFFFFABRRRQAUUUUAFFFFABRRRQAUUUUAFFFFABRRRQAUUUUAFFFFABRRRQAUUVieJbi6hsbe3tpXhk1K/tNNNxHw8CTsd7qezYBCn1YUm7K7Gld2MTxA8epahENCRZNYsG8m7vS22wjhzua0unAJZj/Cq5KnnI6NWtr5JpWtLiN7XUIxmW0nI3kf34WHDp6EfjitDSJrZ47mGxtlh0yymNpZyKT/AKQ0fEzgHsGyM55IJ+sOqC01GRdKjsBqOoKFlCK5hWwB6TTXS/MnsByfSuehmFSFTl5brsZY3KqWIhzXtLuLS1FF4f8AGNjACb2w1IgsTBKJIJUTskd1yGI6ZZB9aglvZLTI1LT9RsSOC8tu01vx6T229PzxXvwrwl1sfJVsvr0vs3XlqXKKqw6hpdxxBe2kh9Fmj3D6qTn9KtD5uV5HqvP8q232OFprRhRS7W9D+VMd448mSSNAOu91XH/fRpiHUVQfV9HRtn22CSTOPLtybiQn02QBj+lTxf23e4Fho91tPSfUyLGAA99j5mP/AH7rOVSEd2dFPC1qnwRZY9f1rPFxdam722kEbFYx3Wpsu62t8cFYM8PJ9OB3PY7CeETexyLrt/LcLIjKbTTy9paJkY5ZT5rEdssB7VFb/aNIuYNFvmVo2UjR7sIsaXUSDJt5FQBBMg9ANw5AyCB5mMxk4wfsl8z6DAZRHnUsQ/l/mS+Hp10Yw6DeIitM8slhfqCF1GQ5dxcbiSJ+55ww6dNq9XXBa5c7RqFpeNHFA2nyalpN0uVkivLLDlSScbgdrJjqCR9e2spJ5rOxmnTy55baCSZMY2SOgZlx7HNcOHqOpH3tz3qtNQdok9FFFdBiFFFFABRRRQAUUUUAFFFFABRRRQAUUUUAFFFFABRRRQAUUUUAFFFFABRRRQAUUUUAFFFFABRRRQAUUUUAFFFFABRRRQAUUUUAFFFFABRRRQAUUUUAFVr6xs9StZrO7jLwS7chWZGVlYOro6EMGBAIIParNFAHKW/h7xDbQxabBqdnFp0AMUNylu7aiIB91MOfJ3jpuwfXGa39O02w0u3FtZxlVLGSV3YvNPK33pZpG+Yse5J/lgXKKiMIx+FFSk5bsKKKKskp3OlaNeZ+1adYzk9TPbQuT+LLms9/CXhGTOdJtlydx8rzIuf+2TCtyigNzA/4Q3whkH+zE46ZnuiPyMlTx+GPCkR3Lo2nlsg5kgSU5HQ5kzWxRQKyRFDbWlsNtvbwQrjGIY0jGPogFS0UUDCqt/YWOp20lpeRCSFyrDkq8bqcrJG64YMOoINWqKAMCLwtY/aLW4v7y+1P7G/m2UWoNC0UEnQSbYo13MOxbP581v0UUkklZDbb3CiiimIKKKKACiiigAooooAKKKKACiiigAooooAKKKKACiiigAooooAKKKKACiiigAooooAKKKKACiiigAooooAKKKKACiiigAooooAKKKKACiiigAooooAKKKKACiiigAooooAKKKKACiiigAooooAKKKKACiiigAooooAKKKKACiiigAooooAKKKKACiiigAooooAKKKKACiiigAooooAKKKKACiiigAooooAKKKKACiiigAooooAKKKKACiiigAooooAKKKKACiiigAooooAKKKKACiiigAooooAKKKKACiiigAooooAKKKKACiiigAooooAKKKKAP//Z;" vertex="1" parent="1">
          <mxGeometry x="231.74" y="180" width="106.52" height="60" as="geometry" />
        </mxCell>
        <mxCell id="WJ8f-q0Ck-yod8A7DQjw-23" value="" style="shape=image;verticalLabelPosition=bottom;labelBackgroundColor=default;verticalAlign=top;aspect=fixed;imageAspect=0;image=data:image/jpeg,/9j/4AAQSkZJRgABAQEAAAAAAAD/4QBCRXhpZgAATU0AKgAAAAgAAYdpAAQAAAABAAAAGgAAAAAAAkAAAAMAAAABAKgAAEABAAEAAAABAAAAAAAAAAAAAP/bAEMACwkJBwkJBwkJCQkLCQkJCQkJCwkLCwwLCwsMDRAMEQ4NDgwSGRIlGh0lHRkfHCkpFiU3NTYaKjI+LSkwGTshE//bAEMBBwgICwkLFQsLFSwdGR0sLCwsLCwsLCwsLCwsLCwsLCwsLCwsLCwsLCwsLCwsLCwsLCwsLCwsLCwsLCwsLCwsLP/AABEIAIkB2gMBIgACEQEDEQH/xAAfAAABBQEBAQEBAQAAAAAAAAAAAQIDBAUGBwgJCgv/xAC1EAACAQMDAgQDBQUEBAAAAX0BAgMABBEFEiExQQYTUWEHInEUMoGRoQgjQrHBFVLR8CQzYnKCCQoWFxgZGiUmJygpKjQ1Njc4OTpDREVGR0hJSlNUVVZXWFlaY2RlZmdoaWpzdHV2d3h5eoOEhYaHiImKkpOUlZaXmJmaoqOkpaanqKmqsrO0tba3uLm6wsPExcbHyMnK0tPU1dbX2Nna4eLj5OXm5+jp6vHy8/T19vf4+fr/xAAfAQADAQEBAQEBAQEBAAAAAAAAAQIDBAUGBwgJCgv/xAC1EQACAQIEBAMEBwUEBAABAncAAQIDEQQFITEGEkFRB2FxEyIygQgUQpGhscEJIzNS8BVictEKFiQ04SXxFxgZGiYnKCkqNTY3ODk6Q0RFRkdISUpTVFVWV1hZWmNkZWZnaGlqc3R1dnd4eXqCg4SFhoeIiYqSk5SVlpeYmZqio6Slpqeoqaqys7S1tre4ubrCw8TFxsfIycrS09TV1tfY2dri4+Tl5ufo6ery8/T19vf4+fr/2gAMAwEAAhEDEQA/APXKKKKACiisTxNey2emMImKyXMi24ZThlUgsxB+gx+NXTg5yUV1IqTUIuT6D77xJo9kzRmRp5lJDJbAPtI7M5IX9axpvGr/APLDTx9Zpv6Iv9aydE0R9XeYmUw20BVXZQC7OwyFUHj6n/Ifrvh99JSK4imaa2dxExcASRuQSM7eCDj0r1I0cPGfs3qzy5VsRKPtFoiw3jTVe1pZge/nH/2YUg8baoPvWdmR/smVf5k1y5NMJrp+rUv5Tm+s1f5jtYfHKZAuNOYDu0EwbH/AXUfzrpNO1fTNVRms5gzKAZInGyWPP95D/PpXkhNPtrq5sriG6tpDHPC25GHQ+qsO4PQisKmCpyXuaM3p4ycX7+qPZ6Kq6dex6hY2d6gwLiJXK/3W6Mv4HIq1XjtNOzPYTTV0FFFFIYUUUUAFFFFABRRRQAUUUUAFFFFABRRRQAUUUUAFFFFABRRRQAUUyWWGBGkmkjjjX7zyMqKPqW4qrZarpmoyXMdlOsxtvL81kDbAX3YCsRg9D0oAu0UUUAeS6xrOq6jPcw3MymGKeaOONI41AVXKjnG79a9F8O/8gPRf+vOL+VeVXX/H3ff9fVz/AOjWr1Xw7/yA9F/684v5UAatFFFABRRRQAUUUUAFFFFABRRRQAUUUUAFFFFABRRRQAUUUUAFFRXEk8UZeC3a4k3KPLR44zg9TukIHFZ1pq11dvMBpk8cVvcTW1xI09sRHJEMt8qtk9ugoA1qKzdO1i01DTn1EK8MUXneckuN8flDcc7eOmCPrWJ/wnFp/wBArUv++Y/8aAOtoooyByelABXLeMz/AKHp/wD19N/6Laul+0W3/PaL/v4v+NZGuWEGrwW0S31vCYZjKS2185UrjAYetdGHfJUUpbHPiFz03GO5y3h/XYtJa4iuEdradlctGAXjkA252kjIPH5VJ4i8RQapDFaWkcggWQSySSgKzsoIVVXPTnJ/zmY+EU/6DFr/AN+x/wDHKafCCf8AQZtf+/Y/+OV6Llh3P2l9fmeco4hQ9nbT5HKE0wmuqm8JJFFNL/bFq3lxvJtEYy20E4H7yuSzkA+ozXXCpGp8LOWdOVP4kBNNJoJphNWQep+EDnQLD/fuv/R71v1z/g8j/hH7Ak/x3X/o9639y/3h+Yr5yvJKpK/dn0NH+HH0QtFHB6UVmahRRRQAUUUUAFFFQXF5Y2g3XNzBCMZzNIiZ+m40AT0VjP4o8MIcHUoT/uLK4/NFIqa31/w/dOEh1G2LngK7eWSfQCTFAGnRRRQAUUVVudR02zKLdXUETuyoiO48xmY4ACD5v0oAtUUUUAFFFRSXVnExSW4gRwASskqK2D04Y5oAlopkc0EwLQyxyAHBMbq4B64JU0SSwwqGlkjjUnaGkZUGTzjLUAefeOyTqVgpJ2ixDBSTtz5rjOOmat+Aeut/9uf/ALVqj42lgm1KxaGWORRYhSY3VwD5rnBKmrXgWe3hOs+dNFHu+ybfNdUzjzc43GgDvaKhS7spGCR3Nu7tnCpKjMcc8AHNTUAeK3X/AB933/X1c/8Ao1q9V8O/8gPRf+vOL+VeVXX/AB933/X1c/8Ao1q9V8O/8gPRf+vOL+VAGrRTZJYol3SyJGv96Rgo/Nqrf2po5baNRsd3p9phz/6FQBbopFZWAZSGUjIKkEEexFLQAUUUUAFFVrq/06xUNd3UEAPI82RVJ+ink/lWd/wlXhfOP7Rj+ojnI/MJigDaoqpaanpV9/x53lvMeu2ORS4+qH5v0q3QAUUUUAFFFV7m/wBOsxm6u7eHviWVEP4AnNAFiisVvFPhdTg6jEf91JmH5qmKtWutaHesEtr+2dz0Tfsc/RXwf0oA0KKKKACsfSVdYvEO5WG7WNSZdykblO3BGe1bFFAHHWcFwsWlaesMoh1m00qa4JVgsf2RALlXPYuqxrz6mpdsv/PBv+/Tf4V1lFAGdq+qQ6Vbec43yyEpbxZxvfGck+g7/wD168+vdT1G/dnubh2UnIjUlYlHoqDirviS9+2anJsbMNvFHFF6fMokY/mcfhWITXu4WgqcFJrVnhYqu6k3FPRDSF9B+VMIX0H5CnE0wmuw4xpC+g/IU0hfQfkKUmmk0ihpC+g/IU0mlJphNIYhNNJoJpKQz07wx/yLVh/11uP/AEe9aXFZ/htWj8NabuGN7TOv+60zsDV4mvy3P2vrsv66s+xwK/cRHrI6HKkj+R+orRikEqBh9CPQisomrNk/zunZl3D6jisMpxkqdZUm/dl+ZtiKacebqi/RRRX2Z5oUyWWGCKWaZ1SKJGkkdjhVVRkk0+szxB/yBNa/68pv/QaAOM1jxlf3TSQ6YWtbYEjzsf6RKPUE/dH6+46VSsvDHiHVCLh4zEknzeffu29wechTmQ/iBWPbf8fNn/182/8A6MWva6AOEXwDLt+fVED+i2xK/mZM1iax4b1PSF86XZPaEhTPCDhCTgCRG5GfxFerUyaGG4imgmQPFMjRyK3RlYYIoA838OeJbjTporS8laTT5GCAyEs1qTwGUnnb6jt1HofSwQQCDkHkEdCK8Xv7RrG9vbNjn7NPJECf4kByrfiMGvR/CGoNe6THHI26axc2rEnJMYAaMn8OPwoAv69JLFo2ryRO6SJaSlHjYqynHUEc15PbEteWbMSzNd2xZmJLE+avUnmvVvEX/ID1r/rzl/lXlNr/AMfdj/19W3/o1aAPaqKKKACvL/GQU69c5A/49rXt/smvUK8w8Y/8h65/697X/wBBNAG/4CAFhqWAB/po6f8AXJK1vEmk3Ws2EVrbvCrpdRzkzlgu1UdcDaCc8+lZXgP/AI8NS/6/R/6KSuvoA8f1XSLrRp4re5eBnli85TAWK7dxTB3KOeKk0jQr3W/tX2Z7dPs3l7/tBcZ8zdjbtU+lbHjv/kKWH/XgP/R0lW/APXW/+3P/ANq0AP0TwlqmmapZ3s0tk0UPm7hE0hc742QY3IB39a7aiigDxW6/4+77/r6uf/RrVu/8JXf2+m6fp2noIWht44ZbhwHkZwMERKcgfU5/CsK6/wCPu+/6+rn/ANGtXonhbRtMgsLDUfKEl5cwrKZZcMY93O2IdB/P3oA5OLw94r1Y/aJ45cPyJdRlZWIPOQjZf/x0VHqHhbXNPieeSCKaBBmR7Vt+wdyykBsevFerUcHIPQ9aAPIdJ1rUdImV7eRmgJBltnYmGRe+B2PoR+vSvVrG8t9QtLa8tzmKdA656qehVh6g5B+leW+I7CPTdXvIIl2wSbLmBR0VJeSo9gcgV1PgOd3s9StycrBcxyJ7ecnI/Nc/jQB2Ncj4m8UNYs+n6cy/awMXE/DC3yM7EB43/wAvr03db1H+y9MvLsY81VEcAPQzSHav5dT9K8lhiuL26hhVi893OqbmOS0krYLMfxyaALthpes65PK8KvK279/c3LnYpPPzSNkk+wzXQDwFe7MnUbcSf3RC5T/vrdn9K7WxsrbT7W3tLdQscKBfd27u3uTyas0AeRanour6LJG9wmE3YhurdmMe7qAGGGB+uK6Tw34rlaSLT9Vk3+YQlvdv97ceAkx9+x/PrmuzurW3vbee1uEDwzIUdT6HuPcdRXjt/ZyWF5eWUpy1vK0e7pvXqrfiMGgD2iqepalY6VbG5vHKpuCIqgs8jkEhEHrxWd4W1N9S0uIytuubRvs05PVtoBRz9RjPuDVDx3/yDLH/AK/0/wDRUlAGBqHinXNVlFtYrJbRSNsjitctcy57M68/gMfjUln4J1m6AlvJorUvyQ+Z5znn5tpx/wCPVU8If8h+y/65XX/oo16lQBwsvgGUITDqas+OBLblVJ+quT+lcrqOl6hpc4gvYtrHLROp3RyKP4kb/Jr2SsTxRZRXmjX5ZQZLWM3cLd1aIbjg+4yD9aAOa8LeI7mO4g0y+laW3nIitpZCWeGQ8KhY8lT0Hp9OnoFeIxMVlgZThlliZSOxDAg17dQAUUUUAFFFFAHkDMzEljknqf0qMmlJphNfUnywhNMJpSasWFheandR2lqgMjfMzNkJEg4LuR2qW0ldlxi27IqE0wketekWfhnw/YKv2mM3tyAN7TcoD/sxg7QPrmr32PQv+gTZf+A8H/xNeHWz3CUpcjkenDLK0lc8mJHrTCR61659j0H/AKBNj/4Dwf8AxNH2PQf+gRY/+A8H/wATWP8ArFg+/wCf+Rp/ZVU8hyPUVr6LoV/rU6LGjx2YYfaLkghFUdRGT1b0x+Neji10JSCuk2II6H7PB/8AE1K9wxURoqxxgYCoMcenFc2I4lw0IP2erNaWUzcvfegSCCKOC1twFgto1ijA6AKNoH4VCTSE0hNfnWJxMsRUdWe7PpKdNQiooCaltm2zw+7FfzGKgJp8B/fwf9dE/nWWHqONaDXdfmaTjeLNqiiiv048EKzPEH/IE1r/AK8pv/Qa06zPEH/IE1r/AK8pv/QaAPJ7b/j5s/8Ar5t//Ri17XXilt/x82f/AF82/wD6MWva6ACiiigDy/xhGI9euiBjzYLaU/XZs/pWj4CmYXeq2+fle3hmx7xuUz/49VLxqQdbIH8NnbA/XLmp/AoP9qXx7CwbP4yx4oA7HxF/yA9a/wCvOX+VeU2v/H3Y/wDX1bf+jVr1bxF/yA9a/wCvOX+VeU2v/H3Y/wDX1bf+jVoA9qooooAK8w8Y/wDIeuf+ve1/9BNen15h4x/5D1z/ANe9r/6CaAOg8B/8eGpf9fo/9FJXX1yHgP8A48NS/wCv0f8AopK6+gDzvx3/AMhSw/68B/6Okq34B663/wBuf/tWqnjv/kKWH/XgP/R0lW/APXW/+3P/ANq0AdzRRRQB4rdf8fd9/wBfVz/6NavVfDv/ACA9F/684v5V5Vdf8fd9/wBfVz/6NavVfDv/ACA9F/684v5UAatFFFAHnHjn/kL23/XhF/6NkrR8A/c1v/rpZ/8AoMlZ3jn/AJC9r/14R/8Ao2StHwD9zW/+uln/AOgyUASePZmW10qAH5ZbmWVh6+UmB/6FXOeFIll17TQwyI/Pm/FImxW/4+U+Voz9hLdIfqyoR/I1h+EWC6/Y5/ijukH18pj/AEoA9SooooAK818bQiPWVkH/AC8WcLt7lWeP+QFelV5z45YHVrRR1SwTP/ApZDQBP4DmYXeq2+fle3hmx/tRuUz/AOPVp+O/+QZY/wDX+n/oqSsjwIpOo6i/ZbJVP1eVSP5Vr+O/+QZY/wDX+n/oqSgDmfCH/Ifsv+uV1/6KNepV5b4Q/wCQ/Zf9crr/ANFGvUqACqOsf8gnWP8Arwu//RTVeqjrH/IJ1j/rwu//AEU1AHjyfei/34//AEIV7fXiCfei/wB+P/0IV7fQAUUUUAFFFFAHj9zBJazS28gIePbkH/aUOP51XJrqfGdi8N7Dfqp8q7RYpCOizRjAB+oxj6GuUJr6SlU9pBSPnKtP2c3ECa9C8LWiWWjLdgD7RqDGQt3EYJVF+mMn8a86Jr1HS/8AkBaF/wBesP8A6BXkZ3WlSwknE78tgpVtSeiikJr8qbPrAzSE0hNNJrOUi0hSaaTQTTc1jKRaQpNITSE00msZSNEhSams133MXouXP4CqxNaenREI8xHL/Kv+6Op/z6V3ZXReIxcI9E7v5f1YzxEuSm2X6KKK/SjwQrM8Qf8AIE1r/rym/wDQa06zPEH/ACBNa/68pv8A0GgDye2/4+bP/r5t/wD0Yte114gjmN45FxujdJFz0ypDDNejab400q5VUvwbOfoWOXt2PqHAyPxH40AdTRVVdS0p03rf2ZTGdwuIsfnurndd8W2NvBLbaZMs93IpTzo+YoAeC27oW9Mf0wQDkfEd0t3repyoQUSUW6EcgiFRGSPxBrpPAdqwTVL0jh2itYz67AZH/mK4u1tbm9uILW2QyTzvtQfqWY+g6k169pdhDplja2UXIhT53xgySN8zufqc0AV/EX/ID1r/AK85f5V5PbsqXFq7cKlxA7H0CyKTXs91bx3VtdW0n3LiGSFvYOpXIrxq8tLixubizuUKywsUbPRh2dfYjkUAe1deRRXF+H/FtoLeGy1WQxSQqscVywJjkRRgCQjow6Z6GuqXUtKZd631mUxncLiLH57qALVeYeMf+Q9c/wDXva/+gmuxv/FegWSsEnF1MM4jtMOM/wC1J9wfnXneq6jLq19NeyRpGZFRFRCSFRBgZJ6n1oA7PwH/AMeGpf8AX6P/AEUldfXIeA/+PDUv+v0f+ikrr6APO/Hf/IUsP+vAf+jpKt+Aeut/9uf/ALVpPHlnLv02/UExhHtJCBwrbvMTP1+as/wfqlrp99cw3Uixw3scarI5wiyxklQxPQHJ5/xoA9KopAysAykFSMgg5BHsRS0AeK3X/H3ff9fVz/6NavVfDv8AyA9F/wCvOL+VeVXX/H3ff9fVz/6NavVfDv8AyA9F/wCvOL+VAGrRRRQB5x45/wCQva/9eEf/AKNkrR8A/c1v/rpZ/wDoMlZ3jn/kL2v/AF4R/wDo2StHwD9zW/8ArpZ/+gyUAavjCza60aaRBl7ORLoYGTsXKv8AoSfwrzvTLsWOo6ddn7sFxG8mP+eZO1/0Jr2RlV1ZHUMjqVZSMgqRggivJ9f0WbR7xkCsbOZma0kPI29fKY/3l/Uc/QA9ZBDAEEEEAgjkEHuKK4vwx4nthbw6bqUoikhAjtp5TiOSMcKjseAw6DPUe/XshLCV3iRCmM7gwK49c9KAHV5R4oulu9c1BkOUhKWqnt+6XDY/HNdlr3imxsIZYLKaOe/dSi+UQ8cBIxvkYcZHYVwmk6Xd6xepbRbtpPmXU55EUZOSzH+8e3qf0AOy8DWbRWN3euMG8mCR5HWKHK5H1Jb8qd47/wCQZY/9f6f+ipK6e3t4LWCC2gUJDBGsUajsqjArmPHf/IMsf+v9P/RUlAHM+EP+Q/Zf9crr/wBFGvUq8t8If8h+y/65XX/oo16lQAVR1j/kE6x/14Xf/opqvVR1j/kE6x/14Xf/AKKagDx5PvRf78f/AKEK9vrxBPvRf78f/oQr2+gAooooAKKKKAK95Z2t/bTWt0m+GUYI6FSOQynsR2rhL3wVq0Tt9ilhuYifl8xvKlA9GBG39fwr0Oit6VedL4TCrQhV+I8vPhDxP/z6w/8AgRF/jXc2lvPaaTpNtOoWaCCKORQwYBlXBAI4rXqre/cj/wB/+hrgzjESq4SakaYPDxpVE4lImmk0E00mvzmUj30heSQB1JAH1PFTfZLr+6P++hVfOOe45FONxcf89ZP++jV0Z4dX9sm/Rr9QlGf2bEv2O7/uL/30KT7Fd/3F/wC+hUX2i5/57Sf99Gm/abn/AJ7Sf99GrdTAfyz+9f5Ao1u6/Em+w3n9xf8AvsUn2G8/uL/32K0LNne3jZ2LMS+SxyfvGrFfQ0cjwlenGqnLVJ7rr8jjli6kJOOmhlxadKWBmIVe4U5Y+2elaaqqhVUAKoAAHYClor2MHl9DBJqktX1e5y1a06vxBRRRXeYhWZ4g/wCQJrX/AF5Tf+g1p1meIP8AkCa1/wBeU3/oNAHk1uAbi0BAIa4gBB5BBkUEEV3+peCdPuGeXT5jaSNk+Uw8y3J9hncPwP4VwNt/x82f/Xzb/wDoxa9roA8xl8FeIkYhI7SYdmSYLn8JFBqa28Ea5Kw+0SWtumeTvMr49lQAf+PV6RRQBlaPoOnaNG3kKZLiQAS3EuDIw67RjgL7D9a1aKKACsvV9D07WY1FwpSeMEQ3EWBKmecHPBHsf0rUooA85uPA+tRsfs89pOmflLM8L491II/8eqKPwRr7n5zYxjuWlZv0VK9LooA4m08Bxgq19fs4HWO1QID7b3yf/HRWH4psLHTdQt7Wzi8uIWUTsNzMzOXkBZmYk54FepV5f4xlEuu3Kg5EEFtCfY7TIR/49QB0XgRSNOv2/vXxH5RR111c34LhaLRI3Ix9oubiYe4DCMf+g10lAEVzbW13BLbXMaywyrtkR+hH+elcTfeBJt7Np14hjOSIrsMGX2EiA5/75ru6KAOI0Hw34g03UrS4nkhFpF5vmJFcSENujZR+72gdSK7eiigDgpvA2oSzXEov7UCWaWQAxSZAdy2DzXY6ZaPYafYWburvbQJEzoCFYr3APNXKKACiiigDlvEPhm71m9iuobqGJUtkgKyI7ElXds5U+9WvDehXGiLfia4im+0tAy+UrLt8sMDnd9a36KACoLu0tL6CS2u4Ulhf7yuO46EEcgjsRU9FAHCX3gSUMzadeIUOSIrsEMPYSIDn8VrL/wCEM8Sg7RFbbfUXA2/lj+len0UAcDZeBLpmU395FHGMEx2gLufbe4AH/fJrtLDT7DTYFt7OFY4xyx6u7f3nY8k1aooAKxvEWjz61aW9vDNHC0VwsxaRWYEBGTAC/WtmigDkNE8J3ulalb30t5BKkSTKUSN1Y70KjBJxXX0UUAFV763a7sr61VgrXFvNCrMCQpkQqCQKsUUAefr4D1EFD/aFr8rKf9VJ2OfWvQKKKACiiigAooooAKKKKACqt8D5aHsH5/EGrVNdFkVkYZDDBrlxdF16Mqa3aNKcuSSkY2aaTU09vNCScFk7Mo/mKr5r83r050ZOFRWZ7cGpK8QJpCaQmkrlcjZI2bJIxBGygbnBLHuTnGKo6gkaTLsABZNzAeucZqCOeeHIjcgHtwRn6GrENpPcP5k24ITli33m9gK+hlilj8LDB0KfvK3ordb+fmcSp+xqOrOWhesQRbQ577j+BYmrFAAUAAYAAAA7AUV9ph6XsaUaXZJfceVOXNJy7hRRRW5AUUUUAFZniD/kCa1/15Tf+g1p1S1a2mvNN1K1h2+bPbSxR7ztXcwwMmgDyG2/4+bP/r5t/wD0Yte115DJpOr6ddWn2yzmjUXVuPMA3xH94vSRMr+tevUAFFFFABRRRQAUUUUAFFYvia71Ox0xrvT5AkkU0QlJjWT9052HAYEdSK4Br/xbqRKCbVJw3VLdJEQ/UQqBQB6BrPiLTdJjkUyLNeYIjto2Bbd2MhHQfWvM0S/1e/KoDLeX0zOxA4DMcsx9FX+QrYsPB2u3bK1yqWcROWaYh5j64jQ9fqwrutJ0PTdHjZbZC0zgCa4lwZZMc4yOAPYUAW7G0jsbOzs4+Ut4UiB/vFRyx+p5qxRRQAUUUUAFFFFABRRRQAUUUUAFFFFABRRRQAUUUUAFFFFABRRRQAUUUUAFFFFABRRRQAUUUUAFFFFABRRRQAUUUUAFRPbW0nLRLn1HB/MVJuApN61nUpQqrlqRTXnqVGTjqmVjp1qf+eg+jf40DT7QdQ5+rH+mKseYKPMFcf8AZuEvf2a+40+sVf5mIkFvH9yNAfXGT+Z5qSm71pdwNdsKcKa5YKy8jJyctWLRRRViCiiigAooooAKKKKADg8GiiigAooooAKKKKACiiigAooooAKKKKACiiigAooooAKKKKACiiigAooooAKKKKACiiigAooooAKKKKACiiigAooooAKKKKACiiigAooooAKKKKACiiigApCM0tFAEZU00o3oamooAr7H9DRsf0NWKKAIQjehpwU1JRQAAYooooAKKKKACiiigAooooAKKKKACiiigAooooAKKKKACiiigAooooAKKKKACiiigAooooAKKKKACiiigAooooAKKKKACiiigAooooAKKKKACiiigAooooAKKKKACiiigAooooA//9k=;" vertex="1" parent="1">
          <mxGeometry x="590.8000000000001" y="40" width="138.39" height="40" as="geometry" />
        </mxCell>
        <mxCell id="WJ8f-q0Ck-yod8A7DQjw-25" value="&lt;font style=&quot;font-size: 14px;&quot;&gt;localhost:83&lt;/font&gt;" style="text;html=1;align=center;verticalAlign=middle;whiteSpace=wrap;rounded=0;" vertex="1" parent="1">
          <mxGeometry x="100" y="220" width="120" height="30" as="geometry" />
        </mxCell>
        <mxCell id="WJ8f-q0Ck-yod8A7DQjw-26" value="&lt;font style=&quot;font-size: 14px;&quot;&gt;ml-server-a:80&lt;/font&gt;" style="text;html=1;align=center;verticalAlign=middle;whiteSpace=wrap;rounded=0;" vertex="1" parent="1">
          <mxGeometry x="600" y="80" width="120" height="30" as="geometry" />
        </mxCell>
        <mxCell id="WJ8f-q0Ck-yod8A7DQjw-27" value="&lt;font style=&quot;font-size: 14px;&quot;&gt;ml-server-b:80&lt;/font&gt;" style="text;html=1;align=center;verticalAlign=middle;whiteSpace=wrap;rounded=0;" vertex="1" parent="1">
          <mxGeometry x="600" y="220" width="120" height="30" as="geometry" />
        </mxCell>
        <mxCell id="WJ8f-q0Ck-yod8A7DQjw-28" value="&lt;font style=&quot;font-size: 14px;&quot;&gt;ml-server-c:80&lt;/font&gt;" style="text;html=1;align=center;verticalAlign=middle;whiteSpace=wrap;rounded=0;" vertex="1" parent="1">
          <mxGeometry x="600" y="360" width="120" height="30" as="geometry" />
        </mxCell>
        <mxCell id="WJ8f-q0Ck-yod8A7DQjw-29" value="&lt;font style=&quot;font-size: 14px;&quot;&gt;proxy:80&lt;/font&gt;" style="text;html=1;align=center;verticalAlign=middle;whiteSpace=wrap;rounded=0;" vertex="1" parent="1">
          <mxGeometry x="350" y="220" width="120" height="30" as="geometry" />
        </mxCell>
        <mxCell id="WJ8f-q0Ck-yod8A7DQjw-31" value="&lt;font color=&quot;#1a1a1a&quot; style=&quot;font-size: 14px;&quot;&gt;Proxy and ML Servers are in the same subnet&lt;/font&gt;" style="text;html=1;align=center;verticalAlign=middle;whiteSpace=wrap;rounded=0;" vertex="1" parent="1">
          <mxGeometry x="340" y="60" width="214" height="90" as="geometry" />
        </mxCell>
        <mxCell id="WJ8f-q0Ck-yod8A7DQjw-33" value="" style="shape=image;verticalLabelPosition=bottom;labelBackgroundColor=default;verticalAlign=top;aspect=fixed;imageAspect=0;image=data:image/jpeg,/9j/4AAQSkZJRgABAQEAAAAAAAD/4QBCRXhpZgAATU0AKgAAAAgAAYdpAAQAAAABAAAAGgAAAAAAAkAAAAMAAAABAF4AAEABAAEAAAABAAAAAAAAAAAAAP/bAEMACwkJBwkJBwkJCQkLCQkJCQkJCwkLCwwLCwsMDRAMEQ4NDgwSGRIlGh0lHRkfHCkpFiU3NTYaKjI+LSkwGTshE//bAEMBBwgICwkLFQsLFSwdGR0sLCwsLCwsLCwsLCwsLCwsLCwsLCwsLCwsLCwsLCwsLCwsLCwsLCwsLCwsLCwsLCwsLP/AABEIAQoB2gMBIgACEQEDEQH/xAAfAAABBQEBAQEBAQAAAAAAAAAAAQIDBAUGBwgJCgv/xAC1EAACAQMDAgQDBQUEBAAAAX0BAgMABBEFEiExQQYTUWEHInEUMoGRoQgjQrHBFVLR8CQzYnKCCQoWFxgZGiUmJygpKjQ1Njc4OTpDREVGR0hJSlNUVVZXWFlaY2RlZmdoaWpzdHV2d3h5eoOEhYaHiImKkpOUlZaXmJmaoqOkpaanqKmqsrO0tba3uLm6wsPExcbHyMnK0tPU1dbX2Nna4eLj5OXm5+jp6vHy8/T19vf4+fr/xAAfAQADAQEBAQEBAQEBAAAAAAAAAQIDBAUGBwgJCgv/xAC1EQACAQIEBAMEBwUEBAABAncAAQIDEQQFITEGEkFRB2FxEyIygQgUQpGhscEJIzNS8BVictEKFiQ04SXxFxgZGiYnKCkqNTY3ODk6Q0RFRkdISUpTVFVWV1hZWmNkZWZnaGlqc3R1dnd4eXqCg4SFhoeIiYqSk5SVlpeYmZqio6Slpqeoqaqys7S1tre4ubrCw8TFxsfIycrS09TV1tfY2dri4+Tl5ufo6ery8/T19vf4+fr/2gAMAwEAAhEDEQA/APXKKKKACiiigAooooAKKKKACiiigAooooAKKKKACiiigAooooAKKKKACiiigAooooAKKKKACiiigAorkfFmrapYXFjFZ3BhR4XkfaqEs27aMlga5v8A4SPxH/0EJf8AviH/AOIr2KGU1q9NVItWfr/keHic6oYeq6Uou69P8z1KivLf+Ej8R/8AQQl/74h/+IruvDd5d32lQz3UnmTeZMhfAUsFbAyFwP0rLFZbVwsPaTaa20NcHm1LGVPZwTTtfW3+ZsUUUV5h64UUUUAFFFFABRRRQAUUUUAFFFFABRRRQAUUUUAFFFFABRRRQAUUUUAFFFFABRRRQAUUUUAFFFFABRRRQAUUUUAFFFFABRRRQAUUUUAFFFFABRRRQAUUUUAFFFFABRRRQAUUUUAFFFFABRRRQBwfjf8A4/dO/wCvV/8A0ZXJ13Hi7TdTvLmwltLaSZFgkjcxAEq2/dyOtcz/AGFr/wD0Dbr/AL4/+vX2+XVqccNBOSv6+Z+fZrh6ssXNxi2vR9jNr0jwh/yBYf8Arvcf+h1xP9ha/wD9A26/74/+vXe+GbW6s9JghuYmil82Zyj43BWfIyBXNnFWnPDpRknquvqdeRUKkMS3OLSs+nobNFFFfIn2wUUUUAFFFFABRRRQAUUUUAFFFFABRRRQAUUUUAFFFFABRRRQAUUUUAFFFFABRRRQAUUUUAFFFFABRRRQAUUUUAFFFFABRRRQAUUUUAFFFFABRRRQAUUUUAFFFFABWP4i1O60qwS4tljMr3EcOZQWVQVZicAj0rYrmfGv/IKt/wDr+i/9FyV2YKEZ4iEZK6bOHMKkqeGnODs0jA/4THX/AEtP+/Lf/F0f8Jjr/paf9+W/+LrnKK+0+oYb+RHwP9pYv/n4/vPRvDOtX2rC/W7WEG3MJRolK5Em7IIJPpWDceL9cSe5RFtFRJpEQGJiQqsVGTuq34G+9rH0tP8A2rXJXP8Ax83f/XxP/wChmvNoYSg8XVg4qytb7j1sRjsRHBUZqbu+a79Gbv8AwmOv+lp/35b/AOLqa28X63Jc2sci2jJJPFG4ETKSrsFODurlqns/+Pux/wCvq3/9GLXfPAYblfuI8ynmWLc1eo9zuvEuu6hpU9nDaLBiWJ5XaVWY8NtAABFYP/CY6/6Wn/flv/i6s+N/+P3Tv+vV/wD0ZXJ1yZfg6E8NCUoJt/5ndmeOxNPFThCbSX+R0f8AwmOv+lp/35b/AOLrsdB1C41PTobq4VBKXljbywQp2NgEAk/zryuvSPCH/IFh/wCu9x/6HXNm2Fo0qClTik7/AOZ1ZJjK9bEONSbas/0Ogooor5Y+xCiiigAooJABJIAAySeAAK821TxFqE+ptc2VxJFDbkxWwU/K6A8s6ng7uvI9PSu7B4KeLk1DSx5+Ox9PBRUp636fmek0VgaF4jg1QC3nCw3yrnaPuTAdWjz39R/Ptv1z1qM6E3CorM6aGIp4iCqU3dBRRRWJuFFFFABRRRQAUUUUAFFFFABRRRQAUUUUAFFFFABRRRQAUUUUAFFFFABRRRQAUUUUAFFFFABRRRQAUUUUAFFFFABRRRQAUUUUAFFctrPimfTL+ayjs45BEkRLvIwJLqH4AHvWd/wnF7/z4Qf9/X/wr0qeV4mpFTjHR+aPKqZvhKU3CUtVpszuq5zxjFNLpUXlRu5S8idhGpYqux1yQO3IrI/4Ti9/58IP+/r/AOFb2oa61npFjqaW4drv7PtjZ8BPNQyHLAdsY6VpTweIwtaEnHW+mqMqmOwuMoVIRnpbXRnnH2e6/wCfef8A79Sf4UfZ7r/n3n/79Sf4V1P/AAnF7/z4Qf8Af1/8KP8AhOL3/nwg/wC/r/4V9J7fGf8APlf+BI+V+rYD/n+//AWWfBMM8f8AazyRSIrfZlUujKGK+YSBuHbI/OuTu7W8W6vA1tOCLibI8p/759q9B8P67JrIvRJbrC1uYsbHLBhJu9QOmKxZ/Gt1HNPGlhCUjlkRS0rbiFYrk4XFedRq4lYqq1Tu9Lq+2mmp6mIo4R4OlGVVqKvZ23110OS+z3X/AD7z/wDfqT/CrFla3jXliBbzk/aYP+WT9nB9K6H/AITi9/58IP8Av6/+FS2/jS5luLaJ7CEJLNHGxSVtwDsFyMriu6dfGcr/AHS/8CR51PD4HnX75/8AgLGeNYLh7rTpEhldPs8ibkRmG4PnBKiuU+z3X/PvP/36k/wr0PX/ABBLo8trDHbJM00byMzuVAAbaAAAaxf+E4vf+fCD/v6/+FcuBrYqOHioU013vbqdmY0MHLEzdSq0+3Lfoct9nuv+fef/AL9Sf4V6N4Ujli0a3WWN0YzTsA6lSVLnBweawv8AhOL3/nwg/wC/r/4V0FrrbT6JPqzW4VoUnJiV8qzREjhiOh+lY5lPE1aShOna7XW+pvlNPCUa0p06jk0n0tobVFcL/wAJxe/8+EH/AH9f/Cj/AITi9/58IP8Av6/+Feb/AGRi/wCX8Uer/beC/m/BndUVy+i+KJ9Uvks5bSOMPHI6vHIzYKDOCGFdRXDXw9TDy5Kisz0MNiaeJh7Sk7ow/FF6bPSbgIcS3TC1QjqA4Jc/kD+deZ12XjiU79Kg7BbiU/UlFH9a42vrsnpKGGUusrv9D4nPKzqYtx6RSX6jkeSN0kjZkkjYOjqcMrA5BBFeoaBqw1ayWR8C6hIiuVHA3Y4cD0b/AB9K8tre8K3rWurQRk/urwG2cdtx+ZD+fH41eaYVV6Dkt46r9SMnxjw+IUW/dlo/0Z6VRRRXw5+hBRRRQAUUUUAFFFFABRRRQAUUUUAFFFFABRRRQAUUUUAFFFFABRRRQAUUUUAFFFFABRRRQAUUUUAFFFFABRRRQAUUUUAFFFFAHmfiv/kOX3+5bf8Aolaw63PFfGuXueMx2xGe48pRxWHkeor9Cwf+70/RfkfmGP8A96qf4n+YV2et/wDIqaB9bH/0neuMyPUV2euAjwpoOQePsOeOn7h+tc+N/i0f8X6HVgP4Nf8Aw/qcZRRkeooyPUV6Z5J2fgb72sfS0/8Aatclc/8AHzd/9fE//oZrrvA3XWD2/wBEGe2f3nFcjdcXV4DwRcTgg8EfOa8rD/77W/7d/I9nFf8AIvoesvzIans/+Pux/wCvq3/9GLUGR6ip7Pm8sQOSbq3wByT+8WvSn8LPJp/GvU6Xxv8A8funf9er/wDoyuTrrPHHF5ppPQ20gB7ZElcnkeorhy3/AHWH9dT0c2/3yp/XQK7bTv8AkTNR/wBy9/8AQq4nI9RXb6cCfBmoYB5jviOOoDHmozP4If4kaZR/Eqf4JHEUUZHqKMj1FeoeOb/hL/kN2/8A1xuf/QK9JrzbwjzrdvjnEFwTjt8uOa9Jr43O/wDeV6L9T7vh/wD3V+r/AEOI8cRkS6VNj5WjuIs+6lW/rXHV6Z4osGvtKlMa7prRhcxgdSFBDqPwJP4V5nXt5PVU8Mo9Y6fqfP55RdPFuXSVn+gU+OSSGSKWJikkTrJGy9VdTkEUyivWavozxE2ndF99Y1yQ5bUr3/gMzqPyUgUiavrcZyuo3o+s8jD8mJFUaKy9jTtblX3G31ire/M/vZ0Np4u1y3KiZo7qMdVmUK+PZ4wP1Bru9Mv01KzgvEikiWXcNkmM5VipwR1HpXk8EMlxNBbxDMk8iRIP9pztFevWtvHaW1tbRD93BEkS+4UYyfrXzec0aFJR5I2k+3Y+syGviKzl7STcV37+pNRRRXzh9SFFFFABRRRQAUUUUAFFFFABRRRQAUUUUAFFFFABRRRQAUUUUAFFFFABRRRQAUUUUAFFFFABRRRQAUUVFcsyW9y6nDLDKyn0IUkGmld2E3ZXMS/8V6TYzvbqs1xJGxWUwBdiMOCu5iMkd8VT/wCE307/AJ8rv84v/iq4PJPJ5J5J9SaK+zjk2GSSkm36nwU8+xbk3FpL0O5fxjo8hBk02ZyBgFxAxx6ZJpn/AAluhf8AQKk/74t/8a4mitP7Kwy6P72ZPOsU92vuR23/AAluhf8AQKk/74t/8albxppbqUewuWU4yreSV49ia4Sij+ycM+j+9jWdYtbNfcjtv+Et0L/oFSf98W/+NH/CW6F/0CpP++Lf/GuJop/2Vh+z+9i/tnFd19yO6TxnpUYIj0+4QE5ITyVGfXANMbxfojEs2lysxOSWW3JJ9yTXEUUv7Jw29n97H/bWLta6+5Hbf8JboX/QKk/74t/8acvi/RFIZdLlVgcgqtuCD7EGuHoo/srDdn97F/bWK7r7kd0/jPSZMCTTrhwOm8QNj6ZNR/8ACW6F/wBAqT/vi3/xriaKFlOGWyf3sbzrFvdr7kdt/wAJboX/AECpP++Lf/GpR410tVCLYXIQDAUeSFx6YBxXCUUPKcM90/vYLOsWtmvuR23/AAluhf8AQKk/74t/8aP+Et0L/oFSf98W/wDjXE0U/wCysP2f3sX9s4ruvuR3KeMdHjJMemzoSMEoIFJHpwabL44iwfJ06QnsZZlUfkqn+dcRRS/snC3u43+bD+2sZaykl8kb954s1y6DJG8dqh4It1O/H+++T+WKwKKK76VCnRVqcbHnVsRVrvmqybCiiuh0/wAKalf2kF2s9vEk4LIsvmb9oJAJ2jHPUUVq9Oguao7IKGHq4iXLSjdnPUf14FdpB4HOQbnUBjusEPJ/4E7f0rf0/QNG00q8MG+Zek058yQH1XPA/ACvMrZxh4L3Pef9dz16GRYqo/3nur+uxgeF/D91FPFqd6nlhFY20Lj94WYbfMcHpxnA/ljntKKK+VxWJniqntJn2WDwlPCU/Z0/+HYUUUVynWFFFFABRRRQAUUUUAFFFFABRRRQAUUUUAFFFFABRRRQAUUUUAFFFFABRRRQAUUUUAFFFFABRRRQAVHOu+GdP70Ui/mpFSUU07O4mrqx4v049OKKnvIjBd3sBGPKuZ4/++XIqCv0qL5kmj8mlFxk4voFFFFUIKKKKACiiigAooooAKKKKACiiigAooooAKKKKACiiigAooooAtWFnJf3lpZx5zPIFJH8KdWb8Bk165FHHDHFFGoWOJFjRR2VRtArkPBmmlUn1SVeZMwWuR/AD87j6nj8D612NfG5xifa1vZx2j+fU+7yLCexoe1lvL8ugUUUV4h9AFFFFABRRRQAUUUUAFFFFABRRRQAUUUUAFFFFABRRRQAUUUUAFFFFABRRRQAUUUUAFFFFABRRRQAUUUUAFFFFABRRRQB5l4ot/s+tXvGFnEdyvvvXDfqDWJXb+N7QmPT75R9xmtpT7N86fyb864ivvsuq+1w0H2VvuPzbNKPscXOPd3+/UKKKK7zzQooooAKKKKACiiigAooooAKKKKACiiigAooooAKKKKACrmm2E2pXtvaRZHmNmR+0cS8s5/p7/WqgBJAAJJIAA5JJ7AV6V4b0b+y7TzZlH226CtNnrEnVYgfbqff6V5+YYxYWldfE9v68j08swLxlZJ/Ct/8vmbMEMNtDDBCoWKFFjjUdlUYFSUUV8G227s/R0klZBRRRSGFFFFABRRRQAUUUUAFFFFABRRRQAUUUUAFFFFABRRRQAUUUUAFFFFABRRRQAUUUUAFFFFABRRRQAUUUUAFFFFABRRRQBT1SyXUbC8tDjMsZ8sn+GRfmQ/mBXkrK6M6OpV0ZkdT1VlOCDXs1cD4v0k29yNShX9xdMFnwOEnx94+zfzHvX0OS4pQm6Euu3r/AME+Yz/BupBYiK1jv6f8A5WiiivrD4sKKKKACiiigAooooAKKKKACiiigAooooAKKKKACiiux8O+GC5iv9Tjwgw9vbOOW7h5Qe3oPz9DzYnE08NDnqP/AIJ14TCVMXU9nTXz7Enhbw+QYtUvUweGsonHI9JmB/8AHfz9K7OiivhMViZ4mo6k/wDhj9FwmEp4SkqcPn5sKKKK5jrCiiigAooooAKKKKACiiigAooooAKKKKACiiigAooooAKKKKACiiigAooooAKKKKACiiigAooooAKKKKACiiigAooooAKKKKACorm3gu4JradA8MyFHU+h7g+o6ipaKabTuhNKSs9jynWNIudIuTFJloXJNtNj5ZE9D/tDuP8AGs2vYLyztL+CS2uoxJE/Y8FWHRlPUEV5/q3hfUdPLy24a6tBkhkGZYx6SIP5j9K+xwGaQrJQqu0vzPhcyyedBupRV4/iv+Ac/RRRXtnz4UUUUAFFFFABRRRQAUUUUAFFFTW9td3cgitoJZpD/DEpYj3OOBSbUVdjjFydoq7IantbW7vZlgtYXllb+FB0HqxPAHua6fTvBlzJtk1KUQpwfIgIaQ+zP90fhmuxs7GxsIhDaQJEnGdo+ZiO7seSfqa8TFZxSpe7S95/gfQYPIq1b3q3ur8f+B8zD0Twtb2Bjub3ZPdjDIuMwwH/AGQep9//ANddLRRXytfEVMRPnqO7PssPhqeGhyUlZBRRRWB0BRRRQAUUUUAFFFFABRRRQAUUUUAFFFFABRRRQAUUUUAFFFFABRRRQAUUUUAFFFFABRRRQAUUUUAFFFFABRRRQAUUUUAFFFFABRRRQAUUUUAFFFFAGZfaDouoFmntlWU9ZYP3cmfUleD+INc5deCJBk2V8pHZLpCD/wB9x/8AxNdtRXdRx+IoaQlp955+Iy3DYjWcNe60/I8yn8L+Ioc/6IJQO8EiN+hIb9Kz5NM1aH/W2F4nuYJMfmBivXaK9GGeVl8UU/wPKnw7QfwSa+5njTRyr96ORf8AeRh/MU3B9D+Rr2ek2r/dH5Ct/wC3v+nf4/8AAOd8NrpV/D/gnjQSRvuo5+isf5VYj0/U5ceVZXb56bYJT+uK9e4HSipefS6Q/H/gFR4bj9qp+H/BPLofDfiKbGLGRB6zNHH+jHP6VqW/gnUnwbm6t4V7iMPK4/PaP1rvaK5amdYiXw2Xy/zOynkGFh8V38/8jnbTwholvtafzrpx/wA9m2x5/wByPH6k1vQwW9ugjt4Y4ox0WJFRfyWpKK8yriKtb+JJs9ejhaNBWpRSCiiisDoCiiigAooooAKKKKACiiigAooooAKKKKACiiigAooooAKKKKACiiigAooooAKKKKACiiigAooooAKKKKACiiigAooooAKKKKACiiigAooooAKKKKACio57i3tYnnuJUiiQZZ5CAo7d6hs9R03UA5s7mObZjeFJDLnoSrYP6VahJx5ktO5DqQUuRtXfTqWqKKKgsKKKKACiiigAooooAKKKKACiiigAooqgmsaNLc/ZI76BrjcUCBurD+EN90n8auMJSvyq9iJVIQtzO1y/RRRUFhRRRQAUUUUAFFFFABRRRQAUUUUAFFFFABRRRQAUUUUAFFFFABRRRQAUUUUAFFFFABRRRQAUUUUAFFFFABRRRQAUUUUAFFFFABRRRQAUUUUAFFFFAHJ+N2YWWnqCdrXTEjsSI2xmsLwkzDW7cAkB4LhWA7jZuwfyFbnjj/jz03/r6f8A9FmsLwn/AMhu1/65XP8A6LNfV4X/AJFkvSR8ZjH/AMK0PWJ6VRRRXyh9mFFFFABRRRQAUUUUAFFFFABRRRQBU1RnTTdUdCVZbK5ZSOoIjbBFeRqSpVlJDKQykcEEcgivWtW/5Berf9eN1/6KavJK+ryL+HP1PjeIn+9p+h7OhJRCepVSfxFLTY/9XH/uL/KnV8q9z7FbBRRRSGFFFFABRRRQAUUUUAFFFFABRRRQAUUUUAFFFFABRRRQAUUUUAFFFFABRRRQAUUUUAFFFFABRRRQAUUUUAFFFFABRRRQAUUUUAIzKqszEKqgszMQAAOSSTXN3/jDS7ZmjtUe7cZBZCEhz7OQSfwH41z/AIk16XUJpLS2ciwiYqdpx9odTyzY/h9B+P0x7HTtQ1GUxWcDSEY3twsaA93c8CvpcJlMIw9rin8tvvPk8bnVSVT2ODV333v6I6BvG+pE/LZ2gX0YysfzBH8quWnjeJmVb2yZAeslu+8D6owB/WqaeCdTKgveWqvj7qiRgPbdgfyrL1Hw9rGmK0s0SyQDrNbkui+7ggMPyrpjRy2s/Zwtf1ZySr5tQXtJ3t6Jm74tvLO+07TJ7SZJYjdOMr1U+WflYHkH6isnwn/yG7X/AK5XP/os1hZOMduuO2a3fCf/ACG7X/rlc/8Aos11Tw6w2CnTi7qzOSnini8fTqyVneJ6VUN1d2llE091MkUS/wATnqfRQOSfYU29vLewtZ7uc4jhXJA6sx4Cr7k8CvLdS1O81S4a4uW4yRFECdkKf3VH8z3/AJfNYDL5Yt3ekV1/yPq8yzOOCikleT2X6s6u78bW6sy2Vm8oHSSd/LU+4RQT+oqkvjfUc/NZWpX0V5AfzOf5Vl6b4d1fU1WWONYbdvuzXBKqw9UUAsfyx71qv4IvguUvrdnx91o5FX/voE/yr2pUcsov2c7X9W/yPBjXzauvaQvb0S/M1rDxhpVyyx3SPaOeAzkPDn3cAEfiv410isrKrKQysAyspBBB5BBFeS3+majpkgjvISm7Oxwd0cmP7rjj8K1fDuvy6dNHa3LlrCVgvzHP2dmP31/2f7w/H68+KymnKHtcK7+W/wBx1YPOqkanscYrPvtb1R6NRRkHBHQ9KwPEmuHS4FgtyPttyp2Hg+TH0MhHr2X/AOtz4FGjOvNU4bs+kxFeGHpurUeiLep67pWlfLPIXnxkQQgNJz0LdgPqa5mbxveFj9nsYEXt57vI347NorlP308v/LSWaZ/9p5JHY/mSa6K08HaxcIrzvDaggEK+ZJcH1VOP/Hq+nWAweEiniHd+f6JHyMsyx+Nm1hlZeX6tk8XjfUgw86ztXXuIzJG35sWH6V0Wl+JNK1NliDNBctwIZ8DefSNxwf0PtXM3PgvVYkZ7ee3uCBnZ80Tn/d3ZX9RXNyxTW8rxTI8U0TYZXBV1I5p/UsDi4v2Ds/L/ACYv7QzDAyX1hXXn/mj1fVv+QXq3/Xjdf+imrySvSYJLuXwrLJdljO2mXRYv95l2OEZs9yMGvNqMmh7NVIPo7Cz6ftHSmuquezR/6uP/AHF/lTqbH/q4/wDcX+Vc3rHiyzs98FjsubkZUvnMER9yOp9h+favmaOHqYifJTVz66viaWGhz1XZG7e39jp8Jnu5ljTkKDyzn+6ijkmuRl8bz/aMw2UZtQ3SV2E7L65X5QfwNctd3l5fTNcXczyyHux4UeiqOAPpWtpHhnUNT2TS5trM8+Y4/eSD/pkh/mf1r6OnluGwtPnxTv8Al8u58rUzXF4yqqeDVl+Pz6I9FtriK6t7e5iJMc8SSpng4YZwRSXV3aWcTT3UyRRL1ZzjJ9AOpPsKgllstH07c2VtrOBUQZyzBQFVRnueB+NeZanqd5qtw09wx2gkQxAnZCnoo9fU9/5eTgsveLm2tIL+rHtY/M1gqaTV5tbdPX0Oru/G1sjMtlZvKB0knby1PuFAJ/lVJfG+o5+aytSvoryKfzOf5Vk6d4f1fU1EkMQjgPSa4JRG/wB0AFj+ArVfwTqgUlLu0ZsfdIlUH23YP8q9mVDLaL9nO1/VnhRxGbV17SF7ei/pmxYeMNKuWWO6R7RzwGkIeHP++uCPxArpFZWVWUhlYAqVIIIPIIIryO+07UNOkEV5A0ZbOxuGjcD+444rX8O6/Lp00drcuWsJWC/Mc/Z2J++v+z/eH4/XmxWUwlD2uFd/Lf7jqwedVI1PY4xW89reqPRq4668aiK7kjgs1ktopGjLtIVkk2nBZBjA9s/p27EEEAjkHkYrxqX/AFs3/XST/wBCNc2UYWliHP2qva343OvO8bWwsYexdr3/AAseoXGv6Pa2ttdSz8XMSTQxKN07qwyPkHT8Tiuen8cS7iLWwUL2a4kJJ/4Cg/rXHfMxUfMzHaqjkk9gAP5V0Nn4R1q6RZJfKtVYZAnLGTHuiDj8SK9L+zsHhVzV3f1/yR5X9qY/GPlw6t6L9WXE8b3wI82xt2XuI5JEP5nNdLpGu2OsK6xB4riNQ0kMmCQpONysOCP89+eUn8F6tGpaCe2nI/gy0bH6bgV/UVq+GNAv9OuJry9CxuYjDFErK5wzKxZivHbjmuTGU8vlRc6LSl0t/kztwNXM411Cum4ve6/VHV0UUV84fUhRRRQAUUUUAFFFFABRRRQAUUUUAFFFFABRRRQAUUUUAFFFFABRRRQAVj+JbxrLSLx0JEk222jI6gy8Ej8M1sVy3jbP9m2fXH21M+n+qkxXZgYKeIhGW1zhzCo6eFqSjvY4a2t5bq4traL/AFk8qRJnoCxxk+w616xYWNrp1rFa26gIg+ZsfNI56u59T/npXnXhkoNc0zf03TBc/wB7yXxXp9evnlWXPGl0tc8Th2jH2cq3W9goIVgVYAqQQQRkEHjBBoor5w+pPM/EulJpl+DAuLW6Uywr2jYHDxj2HBH19qd4T/5Ddr/1yuf/AEWa2/HBTyNKB+/505X127Bn+lYnhIE63bY7Q3JP02EV9lTqyq5c5T3s/wALnwlWjGjmsYQ25k/vszU8bXjGSxsFPyhTdSgd2JKJn6Yb86yfDWlR6nfkzrutbVRNMp6SMThEPseSfp71L4v3f2y+en2a32/T5v8A69a3gYp5WrDjf5tuT67drY/rWfM8PlqlT3t+bNeVYrNnGpsm/wAEdiAAAAAAAAABgADsBRRRXyJ9sV72ztr+2mtblA0cgx/tI3Z1PqO1eTXdtJZ3V1aS8vBK8TEdGweGH1HP417DXmXikodc1DbjgW4bH94Qpmvosjqy9pKl0tc+X4iox9lGt1vb5HZ+GLxrzSLYuSZLZmtXJ6ny8bSfwIrgdZvGvtTv7gnKmZo4vaKM7Fx+WfxrrPBO/wCwajjp9q+X6+Uv/wBauEbIZgeoZgfrmu7AUYwxdZrpb8dTzsyrzngqCfW/4aHeeENKiitRqcqBp7jcICwz5UIJXK+7c/hj156us/RSh0jSCmNv2OAceoQA/rmtCvmsZVlVrylLufWYGjGjh4Rh2QVBNZ2Nw6ST2tvLImNryxI7DHoWGanorlUnF3TOuUVJWkrlLVv+QXq3/Xjdf+imrySvW9W/5Berf9eN1/6KavJK+qyL+HP1PjuI/wCLD0N3VfEmoaipgiJt7PAXy0b55AOP3rj+Q4+tZNraXV7PHbWsZkmf7qjA4HUknjA71p2/hrW7izmvBDsCpviikyJpx1Oxf5Z6/jWTDNPbTRzQu0c0LhkZeGVh9f1r1qPsowlTw1rr8/M8bEe2lONTFp2f5eR32j+FLOy2T3225uhhgmMwRH2B6n3P5d66asjQtah1e2ydqXcIAuIh+XmJn+E/p0+uvXxOMnXlVar7r+tD7/A08PCinh17r/rU4nxteNvsbBT8oU3UoHcklEz9Pm/OsTQLKyvb4fbZYo7W3XzZBLIqCVs4WP5iOO59h71a8Ybv7ZfPT7Lb7fp83/1657jvX12Do/7HGEHa639T4nH1/wDb5TmrpPb0PXhfaUoVVvLMKoAUCeEAAcAAA0v9oaZ/z+2n/f8Ai/8Aiq8f+X2o+X2rg/sGH87+49L/AFjn/wA+1956vfPoWoW0trc3dm0cg4Pnxbkbs6HPUV5dcQm3nuIC6P5Ujx74yGRwDwykcYPWofl9qXI9RXpYLBfVLpSumeTmGYfXbNws11PTfC9493pFtvJMlsz2rE9SI8Fc/gRXmsv+tm/66Sf+hGu/8GQXEWm3DyIypPcmSHcCNyhFUsAe3H6VwEv+tm/66Sf+hGuTL4xjia6jtdfqduZylPCYdz3s/wBDtPB+kReWdVnQM7O0doGGQir8rSDPcnIH0967GszQAF0bSQOn2ZD+LZY1p183jq0q1eUpd7fJH1eX0I0MNCMeyb9WFFFFcR3hRRRQAUUUUAFFFFABRRRQAUUUUAFFFFABRRRQAUUUUAFFFFABRRRQAUUUUAFZHiSza90i8RATLDtuYwOpMXJA+ozWvRWlKo6U1UjuncyrUlWpypy2aseOQTy200FxEcSQyJLGe25TkZr1bTNStdUtY7mBhkgCWPPzRSY5Vh/KuJ8SaBLYzS3trGWsZWLuFGfszk8ggfwnse3T64VpeXtjKJrSeSGToSh4YejKeCPqK+vxGHp5nSjUpvX+tGfEYXE1corSpVVdP+ro9gpHeONHkkZURFLOzkBVUckkmvPU8Z64q7Wjs3bH32jcH6kK4H6VmahrWr6mNl1cHys58mIBIsj1UdfxJryaeSV3K02kj2qvEGHjG8E2/uJ/EWqrqt+XiJ+y26mG3zkbhnLSYPr29gK1/BNmzTXt+w+REFrET3diHfH0AH51zmm6ZeapcLb2y8ZBllIPlxJ/eY/yHf8Al6lY2Vvp9rBaQDEcS4yfvOx5Z29yea7syrU8Nh1hae/6f8E87KcPVxeJeMq7L8X/AMA5LxtZtvsb9R8pU2spHYgl0z9fm/KsTw/qo0q/WSTP2adfJuAOSqk5Dgex/TNek3tpb39rPaTrmKZdpx1U9Qyn1B5FeXanpd5pVw0FwpKkkwygfJKnqp9fUf5JlleniaDwtTf81/wAzfD1cLiVjKW35P8A4J6vHJFKiSxOrxuoZHQgqynoQRTq8nsNY1bTeLS5ZYycmJwHiJPfa3T8MVpv4x19l2gWiH++sLFvyZiP0rhqZJWUrQaaPQpcQYdxvUTT+87jU9StNLtXuLhhnBEUYPzyyY4VR/P0rym4nlup7i5mOZJ5HlcjpljnA9h2p11d3l7KZrqeSaQ8bnOcD0UDgD6Ctzw5oEuoTR3dyhWwiYMNwx9pZTwq/wCz6n8Pp62Gw9PLKTqVHr/WiPFxWKq5tWjSpKyX9XZ1fhizaz0i1DgiS4LXTg9R5mNoP4AVwuvWTWGqXsW3EckhuID2McpLcfQ5H4V6pWPr+ipq9sNhVLuDc1u56HPWNz6H9P5+Lgcf7PEyqVNpb+R9BmGW+1wkaVLeG3n3+8xfCOswiMaVcuFYMzWbMcBgx3GLJ75yR9fbnsq8cnguLWZ4LiN4pozhkcYIPqPb0Na1p4n160RYxOs6KMKLpfMIHpvBDfrXo43KXXn7ag1r0/VHl5fnSw8FQxCeml/0aPTao3GsaNaTC3uL2CObjKM3K56biOB+NcHc+LNfuEZFligDDBNtHtfHszkkfhWIqTTyqiLJLNK+Aqgu7u36k1hQySWrryt6HRiOII6LDxu/M9Y1UhtK1VlIKmwuSCDkEGJjkEV5IO34V6attcWnhia2uDmaLS7lXGc7SY2IXPt0/CvMh2/CuvJYqMakU7pM4s/k5SpSas2tj2dPup/uj+Vcd4o8P7vN1OxT5hl7yFB94d5UA7/3vz+vYp9xP91f5UtfN4bEzw1T2kP+HPq8VhKeLpezqf8ADHj9neXNjcQ3Vs+2WM5H91lPVWHoe9eo6Tqltq1qtxD8rjCzxE5aKTHQ+3of8jkfE/h/7K0mo2Sf6K53XESj/UMT99QP4T39PoeMLTNSutKukuYDkfdmjJwssfdT/Q/5P02IoU8zoqrS+Jf1ZnyOFxFXKcQ6Nb4X/V0dN42smP2HUFGVUG1mI7ZJdCf/AB4flWFoGo2+nXytcojWs6+TMXUN5fOVkAPp39jXoxWz1bT1DqWtr23R8HhgrgMD9R/MV5pq2j3mkTmOUFoHJ+zzgfJIvofRvUf0rHLa0K1F4Sro1p/XmjfNcPOhXWOo6p2fz/yZ6ekFi6q6Q27I4DKypGVYHkEECnfZrT/n3g/79p/hXl2n63q+mDZbT/uc58mUb4ufQHkfgRWq3jXWiuFgslbH3gkpx7gF8Vx1MnxMZWg7r1O6lnuElG842fpc7S8k0ewhM92ttFGDtBaNSWY9lUDJP4UyxudD1JHksxbyBCA48oK6E8jcrKD9K8xvb+/1CXzryd5XGQoOAiA9kVeB+VdX4LsLyN7q/kVkt5oRDCG4807g28D0GMA+9ViMtWHw7qTn734encnC5s8VilSp0/c/H17HZ9K8al/1s3/XST/0I17LXjUv+tm/66Sf+hGtch3qfL9THiTan8/0PU9B/wCQNpH/AF6RfyrSrN0H/kDaR/16RfyqaTUrKKcQO7BtwQvtPlqxOMFv0J6f08OtCUq01FX1f5n0VCcYUIOTtovyLlFFFcx1BRRRQAUUUUAFFFFABRRRQAUUUUAFFFFABRRRQAUUUUAFFFFABRRRQAUUUUAFFFFAAQGBVgCCCCCMgg8YINc5f+ENJumaS3Z7SRjkiIBoSf8Armen4EV0dFb0cRUoPmpysc9fDUsRHlqxucK3ge+ydt/blexaOQH8gT/Orlr4JtUZWvLySUDrHAgiU+xYkn+VddRXZLNcVJW5vwRwQybBxd+T8WQ2tpaWUSwWsKRRL/Cgxk+rHqT7mpqKK81ycnd7nrRioq0VZBUNza2l5E0F1CksTdVcZ59QeoNTUUJuLuglFSVmtDkbvwTaOzNZ3ckIPIjmUSqPYMCG/nVIeB77PzX1sF7kRyE/kSP513dFelHNcVFW5vwR5M8mwc3fk+5s5uw8H6Tasslyz3bryFkASHP/AFzXr+JNdGAqhVUAKoAUAYAA4AAFLRXHWxFWu71JXO+hhqWHXLSjYKKKKwOgp32mabqSBLyBJNoIR+VkT/ddea5yfwPasxNvfzRr2WWNZcfipWuvorro4yvQVqcrI4q+Bw+Id6sE3/XY4+LwPACDPqErr3WKFYyf+BMzfyrodP0fStMH+iQKJCMNK53ysPdm/pir9FOtjcRXVqkrr+uwqGX4bDvmpwSf3/mNkjjljlikUNHKjRup6FWG0iuUh8FWkd0sj3byWqOHEJjAdgDkK8gPT1+WutoqKOKq0E1Tla5pXwdHENOrG9tgooormOoRlV1ZWUMrAqysAQQeCCDXJzeCbSS6aSK7eK1ZtxhEYZ1B5KpIW6emQfxrraK6aGKq4e/spWucuIwlHE2VaN7DIYooIoYIl2xwxpHGo7Ko2gUk0EFxG8M8SSxOMMkihlP4GpKK5+Z35up0cqty20OXu/BemSszWs81sTk7CBLGPoGIb/x6qK+BpN3zaku3/Ztzn9ZK7aivQjmmKirKf5M82eUYOb5nD81+RgWHhTRrNlkkV7qVSCDcYMYI7iNePzzW+AAAAMAcADtRRXJVr1Kz5qkrnbRw9KhHlpRSQVyl14Ms57uSeK7khglkMjwiMMVLHJEbk8D04NdXRVUMTVw7bpO1ycRhaOJSVaN7EcEMVtDDbwrtihjSKMdcKowOaoT6THNOZDLhGJ3DYTIEYszxq+7GGLNn5Seevpp0VnGrOLck9WaTowmlGS0QUUUVmahRRRQAUUUUAFFFFABRRRQAUUUUAFFFFAH/2Q==;" vertex="1" parent="1">
          <mxGeometry x="50.00000000000001" width="160.38" height="90" as="geometry" />
        </mxCell>
      </root>
    </mxGraphModel>
  </diagram>
</mxfile>
